  <svg
    t="1690876422480"
    class="icon"
    viewBox="0 0 1024 1024"
    version="1.1"
    xmlns="http://www.w3.org/2000/svg"
    p-id="11623"
    width="200"
    height="200"
  >
    <path
      d="M421.321532 800.680851h196.085106v125.276596c0 54.146723-43.901277 98.042553-98.042553 98.042553-54.15217 0-98.042553-43.89583-98.042553-98.042553v-125.276596z"
      fill="#C5AC95"
      p-id="11624"
    ></path>
    <path
      d="M134.16034 592.689021c0 47.921021 38.846638 86.76766 86.76766 86.76766 47.915574 0 86.762213-38.846638 86.762213-86.76766 0-47.915574-38.846638-86.762213-86.76766-86.762212-47.915574 0-86.762213 38.846638-86.762213 86.767659z"
      fill="#C9AB90"
      p-id="11625"
    ></path>
    <path
      d="M490.855489 149.23166c159.733106 0 289.209191 129.481532 289.209192 289.214638v327.772596c0 85.188085-69.054638 154.242723-154.242724 154.242723H317.325617c-63.885617 0-115.679319-51.799149-115.679319-115.684766V438.446298c0-159.733106 129.476085-289.214638 289.209191-289.214638z"
      fill="#EBD3BD"
      p-id="11626"
    ></path>
    <path
      d="M410.678468 593.702128c106.485106 0 192.806128 79.850213 192.806128 178.344851 0 4.869447-0.206979 9.695319-0.626383 14.461276H461.344681L408.510638 680.851064l-52.828595 105.657191H218.498723a167.233362 167.233362 0 0 1-0.626383-14.461276C217.87234 673.55234 304.193362 593.702128 410.678468 593.702128z"
      fill="#4D4132"
      p-id="11627"
    ></path>
    <path
      d="M300.925277 111.507064C333.170383 32.441191 446.779915-12.52766 570.564085 9.297702c122.988936 21.683745 213.988766 101.898894 218.346213 186.618553 66.407489 30.393191 105.390298 63.945532 100.324766 92.677447-9.662638 54.805787-176.002723 71.282383-371.526809 36.809532-195.524085-34.478298-346.193702-106.855489-336.531064-161.661277 4.831319-27.402894 48.830638-45.224851 116.066043-51.886297z"
      fill="#4D4132"
      p-id="11628"
    ></path>
    <path
      d="M712.58417 592.689021c0 47.921021 38.846638 86.76766 86.762213 86.76766s86.76766-38.846638 86.76766-86.76766c0-47.915574-38.852085-86.762213-86.76766-86.762212s-86.76766 38.846638-86.76766 86.767659z"
      fill="#EBD3BD"
      p-id="11629"
    ></path>
    <path
      d="M760.782979 583.04817a38.563404 38.563404 0 1 0 77.126808 0.016341 38.563404 38.563404 0 0 0-77.126808-0.016341z"
      fill="#E89E80"
      p-id="11630"
    ></path>
    <path
      d="M220.922553 467.363404a77.126809 77.126809 0 1 0 154.24817 0c0-42.594043-34.532766-77.121362-77.126808-77.121361s-77.121362 34.532766-77.121362 77.126808z"
      fill="#FFFFFF"
      p-id="11631"
    ></path>
    <path
      d="M259.485957 472.18383a33.742979 33.742979 0 1 0 67.485958 0 33.742979 33.742979 0 0 0-67.485958 0z"
      fill="#514141"
      p-id="11632"
    ></path>
    <path
      d="M490.855489 467.363404c0 42.594043 34.532766 77.126809 77.126809 77.126809s77.115915-34.532766 77.115915-77.126809-34.527319-77.121362-77.121362-77.121361-77.126809 34.532766-77.126808 77.126808z"
      fill="#FFFFFF"
      p-id="11633"
    ></path>
    <path
      d="M529.418894 472.18383a33.742979 33.742979 0 1 0 67.48051 0 33.742979 33.742979 0 0 0-67.485957 0z"
      fill="#514141"
      p-id="11634"
    ></path>
    <path
      d="M415.520681 457.531915a34.412936 34.412936 0 0 1 32.332255 22.658723l35.95983 98.886809a67.485957 67.485957 0 0 1-63.400851 90.542298h-15.234724a67.485957 67.485957 0 0 1-62.453106-93.03149l39.576511-96.746212A35.899915 35.899915 0 0 1 415.520681 457.531915z"
      fill="#E89E80"
      p-id="11635"
    ></path>
    <path
      d="M200.924662 365.433751m31.41485-9.008063l83.772934-24.021502q31.41485-9.008063 40.422914 22.406787l0 0q9.008063 31.41485-22.406787 40.422913l-83.772934 24.021503q-31.41485 9.008063-40.422914-22.406787l0 0q-9.008063-31.41485 22.406787-40.422914Z"
      fill="#4D4132"
      p-id="11636"
    ></path>
    <path
      d="M470.337981 317.390747m31.41485 9.008063l125.659401 36.032254q31.41485 9.008063 22.406787 40.422913l0 0q-9.008063 31.41485-40.422914 22.406787l-125.659401-36.032253q-31.41485-9.008063-22.406787-40.422914l0 0q9.008063-31.41485 40.422914-22.406787Z"
      fill="#4D4132"
      p-id="11637"
    ></path>
  </svg>