  <svg
    t="1690876199692"
    class="icon"
    viewBox="0 0 1024 1024"
    version="1.1"
    xmlns="http://www.w3.org/2000/svg"
    p-id="7645"
    width="200"
    height="200"
  >
    <path
      d="M504.242424 0c199.938586 0 362.020202 162.081616 362.020202 362.020202v29.323636c48.407273 18.685414 82.747475 65.660121 82.747475 120.656162 0 54.99604-34.340202 101.975919-82.747475 120.656162v16.911515c55.26497 28.242747 93.090909 85.726384 93.090909 152.048485 0 94.254545-76.412121 170.666667-170.666666 170.666666h-134.464647c-59.366141 0-111.64703-30.306263-142.222222-76.298343C481.424808 941.976566 429.143919 972.282828 369.777778 972.282828H235.313131c-94.254545 0-170.666667-76.412121-170.666666-170.666666 0-59.914343 30.875152-112.614141 77.575757-143.065213v-39.418828C107.892364 595.885253 85.333333 556.580202 85.333333 512s22.55903-83.885253 56.888889-107.132121V362.020202C142.222222 162.081616 304.303838 0 504.242424 0z"
      fill="#4D4132"
      p-id="7646"
    ></path>
    <path
      d="M421.494949 811.959596h186.181819v118.949495c0 51.41204-41.678869 93.090909-93.090909 93.090909s-93.090909-41.678869-93.09091-93.090909v-118.949495z"
      fill="#E6C9AE"
      p-id="7647"
    ></path>
    <path
      d="M157.737374 605.090909c0 42.842505 34.733253 77.575758 77.575757 77.575758 42.842505 0 77.575758-34.733253 77.575758-77.575758 0-42.842505-34.733253-77.575758-77.575758-77.575757-42.842505 0-77.575758 34.733253-77.575757 77.575757z"
      fill="#F2DCC9"
      p-id="7648"
    ></path>
    <path
      d="M199.111111 605.096081a36.20202 36.20202 0 1 0 72.404041 0.010343 36.20202 36.20202 0 0 0-72.404041-0.010343z"
      fill="#E89E80"
      p-id="7649"
    ></path>
    <path
      d="M716.282828 605.090909c0 42.842505 34.733253 77.575758 77.575758 77.575758 42.842505 0 77.575758-34.733253 77.575757-77.575758 0-42.842505-34.733253-77.575758-77.575757-77.575757-42.842505 0-77.575758 34.733253-77.575758 77.575757z"
      fill="#F2DCC9"
      p-id="7650"
    ></path>
    <path
      d="M757.656566 605.096081a36.20202 36.20202 0 1 0 72.40404 0.010343 36.20202 36.20202 0 0 0-72.40404-0.010343z"
      fill="#E89E80"
      p-id="7651"
    ></path>
    <path
      d="M509.414141 222.383838h10.343435c148.526545 0 268.929293 120.402747 268.929293 268.929293v181.010101c0 151.381333-122.719677 274.10101-274.10101 274.10101h-5.171718c-148.526545 0-268.929293-120.402747-268.929293-268.929293V491.313131c0-148.526545 120.402747-268.929293 268.929293-268.929293z"
      fill="#F2DCC9"
      p-id="7652"
    ></path>
    <path
      d="M434.703515 753.782949C473.543111 764.984889 500.172283 770.585859 514.585859 770.585859c14.413576 0 41.042747-5.60097 79.882343-16.80291a10.343434 10.343434 0 0 1 13.208566 9.940041v19.792162a10.343434 10.343434 0 0 1-7.473132 9.94004C557.521455 805.789737 528.983919 811.959596 514.585859 811.959596c-14.398061 0-42.935596-6.169859-85.617778-18.504404A10.343434 10.343434 0 0 1 421.494949 783.515152v-19.792162a10.343434 10.343434 0 0 1 13.208566-9.940041z"
      fill="#E89E80"
      p-id="7653"
    ></path>
    <path
      d="M306.424242 661.979798a11.636364 11.636364 0 0 1 11.636364 11.636364v38.787878a11.636364 11.636364 0 0 1-11.636364 11.636364h-7.757575a11.636364 11.636364 0 0 1-11.636364-11.636364v-38.787878a11.636364 11.636364 0 0 1 11.636364-11.636364h7.757575z m46.545455 0a11.636364 11.636364 0 0 1 11.636364 11.636364v38.787878a11.636364 11.636364 0 0 1-11.636364 11.636364h-7.757576a11.636364 11.636364 0 0 1-11.636363-11.636364v-38.787878a11.636364 11.636364 0 0 1 11.636363-11.636364h7.757576zM689.131313 661.979798a11.636364 11.636364 0 0 1 11.636364 11.636364v38.787878a11.636364 11.636364 0 0 1-11.636364 11.636364h-7.757576a11.636364 11.636364 0 0 1-11.636363-11.636364v-38.787878a11.636364 11.636364 0 0 1 11.636363-11.636364h7.757576z m46.545455 0a11.636364 11.636364 0 0 1 11.636363 11.636364v38.787878a11.636364 11.636364 0 0 1-11.636363 11.636364h-7.757576a11.636364 11.636364 0 0 1-11.636364-11.636364v-38.787878a11.636364 11.636364 0 0 1 11.636364-11.636364h7.757576z"
      fill="#F5B196"
      p-id="7654"
    ></path>
    <path
      d="M649.050505 522.343434c25.703434 0 46.545455 19.445657 46.545455 43.442425v37.236363c0 23.996768-20.84202 43.442424-46.545455 43.442424s-46.545455-19.445657-46.545454-43.442424V565.785859C602.505051 541.789091 623.347071 522.343434 649.050505 522.343434zM380.121212 522.343434c25.703434 0 46.545455 19.445657 46.545455 43.442425v37.236363c0 23.996768-20.84202 43.442424-46.545455 43.442424s-46.545455-19.445657-46.545454-43.442424V565.785859C333.575758 541.789091 354.417778 522.343434 380.121212 522.343434z"
      fill="#514141"
      p-id="7655"
    ></path>
    <path
      d="M380.121212 553.373737m-20.686869 0a20.686869 20.686869 0 1 0 41.373738 0 20.686869 20.686869 0 1 0-41.373738 0Z"
      fill="#FFFFFF"
      p-id="7656"
    ></path>
    <path
      d="M638.707071 553.373737m-20.686869 0a20.686869 20.686869 0 1 0 41.373737 0 20.686869 20.686869 0 1 0-41.373737 0Z"
      fill="#FFFFFF"
      p-id="7657"
    ></path>
    <path
      d="M428.249212 519.01802l0.667152 0.460283c0.568889 0.336162 1.111919 0.703354 1.629091 1.106748 6.195717 4.799354 6.340525 12.474182 0.320646 17.13907-5.859556 4.540768-15.401374 4.551111-21.617778 0.11895l-0.501656-0.367192-0.051718 0.041374c-24.60703-17.325253-62.008889-17.387313-85.410909 0.118949l-0.770585 0.584404c-6.019879 4.664889-15.918545 4.551111-22.119435-0.248242-6.030222-4.675232-6.32501-12.07596-0.780929-16.766707l0.465454-0.372364c34.329859-26.603313 89.718949-27.31701 127.048404-2.575515l1.122263 0.760242zM723.037091 519.01802l0.667151 0.460283c0.568889 0.336162 1.111919 0.703354 1.629091 1.106748 6.195717 4.799354 6.340525 12.474182 0.320647 17.13907-5.859556 4.540768-15.401374 4.551111-21.617778 0.11895l-0.501657-0.367192-0.051717 0.041374c-24.60703-17.325253-62.008889-17.387313-85.410909 0.118949l-0.770586 0.584404c-6.019879 4.664889-15.918545 4.551111-22.119434-0.248242-6.030222-4.675232-6.32501-12.07596-0.780929-16.766707l0.465454-0.372364c34.329859-26.603313 89.718949-27.31701 127.048404-2.575515l1.122263 0.760242zM428.249212 425.44097l0.667152 0.568889c0.568889 0.424081 1.111919 0.884364 1.629091 1.391192 6.195717 5.999192 6.340525 15.592727 0.320646 21.421252-5.859556 5.678545-15.401374 5.694061-21.617778 0.155152l-0.501656-0.465455-0.051718 0.051717c-24.60703-21.659152-62.008889-21.736727-85.410909 0.14998l-0.770585 0.729212c-6.019879 5.828525-15.918545 5.688889-22.119435-0.310303-6.030222-5.84404-6.32501-15.091071-0.780929-20.955798l0.465454-0.465454c34.329859-33.254141 89.718949-34.143677 127.048404-3.216809l1.122263 0.946425zM717.865374 425.44097l0.667151 0.568889c0.568889 0.424081 1.111919 0.884364 1.629091 1.391192 6.195717 5.999192 6.340525 15.592727 0.320647 21.421252-5.859556 5.678545-15.401374 5.694061-21.617778 0.155152l-0.501657-0.465455-0.051717 0.051717c-24.60703-21.659152-62.008889-21.736727-85.410909 0.14998l-0.770586 0.729212c-6.019879 5.828525-15.918545 5.688889-22.119434-0.310303-6.030222-5.84404-6.32501-15.091071-0.780929-20.955798l0.465454-0.465454c34.329859-33.254141 89.718949-34.143677 127.048404-3.216809l1.122263 0.946425zM385.292929 118.949495c65.241212 0 119.62699 46.462707 131.878788 108.099232C529.428687 165.412202 583.809293 118.949495 649.050505 118.949495h155.151515c74.265859 0 134.464646 60.198788 134.464647 134.464646s-60.198788 134.464646-134.464647 134.464647h-155.151515c-65.241212 0-119.62699-46.462707-131.878788-108.099232C504.914747 341.416081 450.534141 387.878788 385.292929 387.878788H230.141414C155.875556 387.878788 95.676768 327.68 95.676768 253.414141s60.198788-134.464646 134.464646-134.464646h155.151515z"
      fill="#4D4132"
      p-id="7658"
    ></path>
  </svg>
