  <svg
    t="1690876096527"
    class="icon"
    viewBox="0 0 1024 1024"
    version="1.1"
    xmlns="http://www.w3.org/2000/svg"
    p-id="5898"
    width="200"
    height="200"
  >
    <path
      d="M512 0c213.414846 0 391.524617 162.933174 410.481353 375.507423l31.901931 357.768278c3.000677 33.628975-21.835144 63.324975-55.46412 66.325652a61.134328 61.134328 0 0 1-5.430766 0.239443H130.511602c-33.766527 0-61.134328-27.372896-61.134328-61.134328a61.134328 61.134328 0 0 1 0.239442-5.430767l31.901931-357.768278C120.475383 162.933174 298.590249 0 512 0z"
      fill="#4D4132"
      p-id="5899"
    ></path>
    <path
      d="M420.298507 815.124378h183.402986v117.174129c0 50.644697-41.056796 91.701493-91.701493 91.701493s-91.701493-41.056796-91.701493-91.701493v-117.174129z"
      fill="#E6C9AE"
      p-id="5900"
    ></path>
    <path
      d="M160.477612 611.343284c0 42.203065 34.214846 76.41791 76.41791 76.41791 42.203065 0 76.41791-34.214846 76.417911-76.41791 0-42.203065-34.214846-76.41791-76.417911-76.417911-42.203065 0-76.41791 34.214846-76.41791 76.417911z"
      fill="#F2DCC9"
      p-id="5901"
    ></path>
    <path
      d="M201.233831 611.348378a35.661692 35.661692 0 1 0 71.323383 0.010189 35.661692 35.661692 0 0 0-71.323383-0.010189z"
      fill="#E89E80"
      p-id="5902"
    ></path>
    <path
      d="M710.686567 611.343284c0 42.203065 34.214846 76.41791 76.417911 76.41791 42.203065 0 76.41791-34.214846 76.41791-76.41791 0-42.203065-34.214846-76.41791-76.41791-76.417911-42.203065 0-76.41791 34.214846-76.417911 76.417911z"
      fill="#F2DCC9"
      p-id="5903"
    ></path>
    <path
      d="M751.442786 611.348378a35.661692 35.661692 0 1 0 71.323383 0.010189 35.661692 35.661692 0 0 0-71.323383-0.010189z"
      fill="#E89E80"
      p-id="5904"
    ></path>
    <path
      d="M506.905473 234.348259h10.189054c146.309731 0 264.915423 118.605692 264.915423 264.915423v178.308457c0 149.12191-120.88804 270.00995-270.00995 270.009951h-5.094527c-146.309731 0-264.915423-118.605692-264.915423-264.915423V499.263682c0-146.309731 118.605692-264.915423 264.915423-264.915423z"
      fill="#F2DCC9"
      p-id="5905"
    ></path>
    <path
      d="M420.298507 779.462687m10.189055 0l163.024876 0q10.189055 0 10.189055 10.189054l0 20.37811q0 10.189055-10.189055 10.189054l-163.024876 0q-10.189055 0-10.189055-10.189054l0-20.37811q0-10.189055 10.189055-10.189054Z"
      fill="#E89E80"
      p-id="5906"
    ></path>
    <path
      d="M296.767969 467.946376m15.095416-2.390879l150.954158-23.90879q15.095416-2.390879 17.486295 12.704536l0 0q2.390879 15.095416-12.704537 17.486295l-150.954158 23.90879q-15.095416 2.390879-17.486295-12.704537l0 0q-2.390879-15.095416 12.704537-17.486294Z"
      fill="#4D4132"
      p-id="5907"
    ></path>
    <path
      d="M727.232086 473.040907m-15.095416-2.390879l-150.954158-23.90879q-15.095416-2.390879-17.486295 12.704537l0 0q-2.390879 15.095416 12.704537 17.486295l150.954158 23.90879q15.095416 2.390879 17.486295-12.704537l0 0q2.390879-15.095416-12.704537-17.486295Z"
      fill="#4D4132"
      p-id="5908"
    ></path>
    <path
      d="M437.141015 591.515383l0.657194-0.458507c0.560398-0.32605 1.095323-0.687761 1.604776-1.085135 6.103244-4.732816 6.245891-12.288 0.315861-16.883263-5.7721-4.472995-15.171502-4.488279-21.295125-0.122269l-0.494169 0.366806-0.050945-0.040756c-24.239761 17.066667-61.083383 17.127801-84.136119-0.117174l-0.759085-0.575682c-5.93003-4.595264-15.680955-4.483184-21.789294 0.244537-5.940219 4.605453-6.230607 11.890627-0.769273 16.511363l0.458507 0.371901c33.817473 26.206249 88.379861 26.904199 125.152159 2.53198l1.105513-0.743801z"
      fill="#4D4132"
      p-id="5909"
    ></path>
    <path
      d="M413.166169 585.51403l0.728518-0.219065c0.601154-0.137552 1.192119-0.305672 1.772895-0.519642 6.928557-2.511602 9.633751-9.567522 6.047204-15.762467-3.494846-6.03192-11.666468-9.022408-18.493134-6.857234l-0.550209 0.183403-0.030567-0.050945c-26.929672 8.360119-59.004816-3.250308-73.167602-26.756458l-0.458508-0.779463c-3.586547-6.194945-12.114786-9.185433-19.043343-6.673831-6.745154 2.445373-9.491104 9.200716-6.317214 15.278488l0.27001 0.489075c20.464716 35.335642 67.701174 53.273473 108.024358 42.014567l1.222687-0.351523zM707.150965 591.515383l0.657194-0.458507c0.560398-0.32605 1.095323-0.687761 1.604776-1.085135 6.103244-4.732816 6.245891-12.288 0.315861-16.883263-5.7721-4.472995-15.171502-4.488279-21.295124-0.122269l-0.49417 0.366806-0.050945-0.040756c-24.239761 17.066667-61.083383 17.127801-84.136119-0.117174l-0.759085-0.575682c-5.93003-4.595264-15.680955-4.483184-21.789293 0.244537-5.940219 4.605453-6.230607 11.890627-0.769274 16.511363l0.458508 0.371901c33.817473 26.206249 88.379861 26.904199 125.152159 2.53198l1.105512-0.743801z"
      fill="#4D4132"
      p-id="5910"
    ></path>
    <path
      d="M715.057672 546.337114l0.412656-0.626626c0.3719-0.489075 0.713234-1.003622 1.024-1.533453 3.693532-6.378348 1.232876-13.52597-5.502089-15.966249-6.551562-2.37405-14.733373 0.585871-18.569552 6.633075l-0.305672 0.494169-0.050945-0.020378c-15.258109 23.715025-47.292498 35.442627-73.254209 26.537393l-0.850786-0.305672c-6.729871-2.435184-15.181692 0.75399-18.875224 7.132338-3.596736 6.210229-1.355144 13.148975 4.977353 15.762468l0.524736 0.203781c38.387264 13.913154 86.102607-2.710289 109.756498-37.256278l0.713234-1.049473zM608.79602 417.751244H236.895522a10.189055 10.189055 0 0 1-10.189054-10.189055V259.820896c0-87.218308 70.71204-157.930348 157.930348-157.930349h371.900497a10.189055 10.189055 0 0 1 10.189055 10.189055v147.741294c0 87.218308-70.71204 157.930348-157.930348 157.930348z"
      fill="#4D4132"
      p-id="5911"
    ></path>
  </svg>
