  <svg
    t="1690876514871"
    class="icon"
    viewBox="0 0 1024 1024"
    version="1.1"
    xmlns="http://www.w3.org/2000/svg"
    p-id="13143"
    width="200"
    height="200"
  >
    <path
      d="M167.506173 271.802469h663.703704c34.910815 0 63.209877 28.299062 63.209876 63.209877v549.925926c0 34.910815-28.299062 63.209877-63.209876 63.209876H167.506173c-34.910815 0-63.209877-28.299062-63.209877-63.209876V335.012346c0-34.910815 28.299062-63.209877 63.209877-63.209877z"
      fill="#4D4132"
      p-id="13144"
    ></path>
    <path
      d="M409.928691 720.592593h227.555556v145.382716c0 62.836938-50.94716 113.777778-113.777778 113.777777-62.843259 0-113.777778-50.94084-113.777778-113.777777v-145.382716z"
      fill="#C5AC95"
      p-id="13145"
    ></path>
    <path
      d="M76.679901 479.219358c0 55.612049 45.081284 100.693333 100.693334 100.693333 55.605728 0 100.687012-45.081284 100.687012-100.693333 0-55.605728-45.081284-100.687012-100.693333-100.687012-55.605728 0-100.687012 45.081284-100.687013 100.693333z"
      fill="#C9AB90"
      p-id="13146"
    ></path>
    <path
      d="M483.555556 0h12.641975c181.532444 0 328.691358 147.158914 328.691358 328.691358v353.975309c0 111.710815-90.56079 202.271605-202.271605 202.271605H357.135802c-111.710815 0-202.271605-90.56079-202.271604-202.271605V328.691358C154.864198 147.158914 302.023111 0 483.555556 0z"
      fill="#EBD3BD"
      p-id="13147"
    ></path>
    <path
      d="M407.703704 499.358025c129.169383 0 259.160494 104.70716 259.160494 233.876543v94.814815c0 3.565037-0.018963 7.111111-0.06321 10.631901 0.044247 0.663704 0.06321 1.333728 0.06321 2.010074v151.703704a31.604938 31.604938 0 1 1-63.209877 0v-32.173827a11.643259 11.643259 0 0 1-0.056889-1.428544L603.654321 954.469136v-221.234568c0-94.258568-76.408099-170.666667-170.666667-170.666667-93.316741 0-169.136988 74.891062-170.641382 167.847506L262.320988 733.234568v259.160494a31.604938 31.604938 0 1 1-63.209877 0v-151.703704l0.012642-0.606815-0.012642-5.650963V733.234568c0-129.169383 79.42321-233.876543 208.592593-233.876543z"
      fill="#4D4132"
      p-id="13148"
    ></path>
    <path
      d="M396.875852 366.617284a39.936 39.936 0 0 1 37.521383 26.295309l41.73116 114.75753a78.317037 78.317037 0 0 1-73.576296 105.073778h-17.679803a78.317037 78.317037 0 0 1-72.476444-107.962469l45.928296-112.273383A41.66163 41.66163 0 0 1 396.875852 366.617284z"
      fill="#E89E80"
      p-id="13149"
    ></path>
    <path
      d="M747.937185 472.89837c0 55.612049 45.081284 100.693333 100.687013 100.693334s100.693333-45.081284 100.693333-100.693334c0-55.605728-45.087605-100.687012-100.693333-100.687012s-100.693333 45.081284-100.693334 100.693333z"
      fill="#EBD3BD"
      p-id="13150"
    ></path>
    <path
      d="M803.871605 468.03121a44.752593 44.752593 0 1 0 89.505185 0.018963 44.752593 44.752593 0 0 0-89.505185-0.018963z"
      fill="#E89E80"
      p-id="13151"
    ></path>
    <path
      d="M177.366914 371.705679a89.505185 89.505185 0 1 0 179.004049 0c0-49.430123-40.075062-89.498864-89.505185-89.498864s-89.498864 40.075062-89.498864 89.505185z"
      fill="#FFFFFF"
      p-id="13152"
    ></path>
    <path
      d="M222.119506 377.299753a39.158519 39.158519 0 1 0 78.317037 0 39.158519 39.158519 0 0 0-78.317037 0z"
      fill="#514141"
      p-id="13153"
    ></path>
    <path
      d="M489.876543 373.94963c0 49.430123 40.075062 89.498864 89.505185 89.498864s89.498864-40.075062 89.498865-89.505185S628.805531 284.444444 579.375407 284.444444 489.876543 324.519506 489.876543 373.94963z"
      fill="#FFFFFF"
      p-id="13154"
    ></path>
    <path
      d="M534.123457 374.170864a39.158519 39.158519 0 1 0 78.317037 0 39.158519 39.158519 0 0 0-78.317037 0z"
      fill="#514141"
      p-id="13155"
    ></path>
    <path
      d="M786.962963 271.802469m31.604938 0l0 0q31.604938 0 31.604939 31.604938l0 164.345679q0 31.604938-31.604939 31.604939l0 0q-31.604938 0-31.604938-31.604939l0-164.345679q0-31.604938 31.604938-31.604938Z"
      fill="#4D4132"
      p-id="13156"
    ></path>
    <path
      d="M199.330987 175.725107m34.372562 16.028189l114.575206 53.427296q34.372562 16.028189 18.344373 50.400751l0 0q-16.028189 34.372562-50.400751 18.344373l-114.575206-53.427296q-34.372562-16.028189-18.344373-50.400751l0 0q16.028189-34.372562 50.400751-18.344373Z"
      fill="#4D4132"
      p-id="13157"
    ></path>
    <path
      d="M445.904373 247.744172m36.45674-10.453802l145.82696-41.815208q36.45674-10.453802 46.910542 26.002938l0 0q10.453802 36.45674-26.002938 46.910542l-145.82696 41.815208q-36.45674 10.453802-46.910542-26.002938l0 0q-10.453802-36.45674 26.002938-46.910542Z"
      fill="#4D4132"
      p-id="13158"
    ></path>
    <path
      d="M293.925926 676.345679c0 69.82163 56.598123 126.419753 126.419753 126.419753s126.419753-56.598123 126.419753-126.419753H293.925926z"
      fill="#E89E80"
      p-id="13159"
    ></path>
  </svg>