  <svg
    t="1690876153239"
    class="icon"
    viewBox="0 0 1024 1024"
    version="1.1"
    xmlns="http://www.w3.org/2000/svg"
    p-id="6767"
    width="200"
    height="200"
  >
    <path
      d="M512 0c208.213333 0 376.995025 168.781692 376.995025 376.995025v540.0199c0 33.761433-27.372896 61.134328-61.134328 61.134329H196.139303c-33.761433 0-61.134328-27.372896-61.134328-61.134329V376.995025C135.004975 168.781692 303.786667 0 512 0z"
      fill="#4D4132"
      p-id="6768"
    ></path>
    <path
      d="M420.298507 815.124378h183.402986v117.174129c0 50.644697-41.056796 91.701493-91.701493 91.701493s-91.701493-41.056796-91.701493-91.701493v-117.174129z"
      fill="#E6C9AE"
      p-id="6769"
    ></path>
    <path
      d="M160.477612 636.81592c0 42.203065 34.214846 76.41791 76.41791 76.417911 42.203065 0 76.41791-34.214846 76.417911-76.417911 0-42.203065-34.214846-76.41791-76.417911-76.41791-42.203065 0-76.41791 34.214846-76.41791 76.41791z"
      fill="#F2DCC9"
      p-id="6770"
    ></path>
    <path
      d="M201.233831 636.821015a35.661692 35.661692 0 1 0 71.323383 0.010189 35.661692 35.661692 0 0 0-71.323383-0.010189z"
      fill="#E89E80"
      p-id="6771"
    ></path>
    <path
      d="M710.686567 636.81592c0 42.203065 34.214846 76.41791 76.417911 76.417911 42.203065 0 76.41791-34.214846 76.41791-76.417911 0-42.203065-34.214846-76.41791-76.41791-76.41791-42.203065 0-76.41791 34.214846-76.417911 76.41791z"
      fill="#F2DCC9"
      p-id="6772"
    ></path>
    <path
      d="M751.442786 636.821015a35.661692 35.661692 0 1 0 71.323383 0.010189 35.661692 35.661692 0 0 0-71.323383-0.010189z"
      fill="#E89E80"
      p-id="6773"
    ></path>
    <path
      d="M506.905473 234.348259h10.189054c146.309731 0 264.915423 118.605692 264.915423 264.915423v178.308457c0 149.12191-120.88804 270.00995-270.00995 270.009951h-5.094527c-146.309731 0-264.915423-118.605692-264.915423-264.915423V499.263682c0-146.309731 118.605692-264.915423 264.915423-264.915423z"
      fill="#F2DCC9"
      p-id="6774"
    ></path>
    <path
      d="M512 188.497512c180.071164 0 326.049751 67.288517 326.049751 150.288558 0 79.892378-135.249512 145.229692-305.977313 150.008358L512 433.034826l-20.072438 55.759602C321.20995 484.015761 185.950249 418.683542 185.950249 338.78607 185.950249 255.78603 331.928836 188.497512 512 188.497512z"
      fill="#4D4132"
      p-id="6775"
    ></path>
    <path
      d="M420.298507 764.179104c0 50.644697 41.056796 91.701493 91.701493 91.701493s91.701493-41.056796 91.701493-91.701493H420.298507z"
      fill="#E89E80"
      p-id="6776"
    ></path>
    <path
      d="M306.945274 667.383085a11.462687 11.462687 0 0 1 11.462686 11.462686v38.208955a11.462687 11.462687 0 0 1-11.462686 11.462687h-7.641791a11.462687 11.462687 0 0 1-11.462687-11.462687v-38.208955a11.462687 11.462687 0 0 1 11.462687-11.462686h7.641791z m45.850746 0a11.462687 11.462687 0 0 1 11.462686 11.462686v38.208955a11.462687 11.462687 0 0 1-11.462686 11.462687h-7.641791a11.462687 11.462687 0 0 1-11.462687-11.462687v-38.208955a11.462687 11.462687 0 0 1 11.462687-11.462686h7.641791zM683.940299 667.383085a11.462687 11.462687 0 0 1 11.462686 11.462686v38.208955a11.462687 11.462687 0 0 1-11.462686 11.462687h-7.641792a11.462687 11.462687 0 0 1-11.462686-11.462687v-38.208955a11.462687 11.462687 0 0 1 11.462686-11.462686h7.641792z m45.850746 0a11.462687 11.462687 0 0 1 11.462686 11.462686v38.208955a11.462687 11.462687 0 0 1-11.462686 11.462687h-7.641791a11.462687 11.462687 0 0 1-11.462687-11.462687v-38.208955a11.462687 11.462687 0 0 1 11.462687-11.462686h7.641791z"
      fill="#F5B196"
      p-id="6777"
    ></path>
    <path
      d="M426.95196 545.980498l0.657194 0.672477c0.560398 0.499264 1.095323 1.044378 1.604776 1.635343 6.103244 7.096677 6.245891 18.432 0.315861 25.324896-5.7721 6.709493-15.171502 6.734965-21.295124 0.178308l-0.494169-0.545114-0.050946 0.066229c-24.239761-25.605095-61.083383-25.696796-84.136119 0.173214l-0.759085 0.866069c-5.93003 6.887801-15.680955 6.724776-21.789293-0.3719-5.940219-6.908179-6.230607-17.83594-0.769274-24.769592l0.458508-0.555304c33.817473-39.309373 88.379861-40.358846 125.152159-3.795423l1.105512 1.120797zM717.34002 545.980498l0.657194 0.672477c0.560398 0.499264 1.095323 1.044378 1.604776 1.635343 6.103244 7.096677 6.245891 18.432 0.315861 25.324896-5.7721 6.709493-15.171502 6.734965-21.295125 0.178308l-0.494169-0.545114-0.050945 0.066229c-24.239761-25.605095-61.083383-25.696796-84.136119 0.173214l-0.759085 0.866069c-5.93003 6.887801-15.680955 6.724776-21.789294-0.3719-5.940219-6.908179-6.230607-17.83594-0.769273-24.769592l0.458507-0.555304c33.817473-39.309373 88.379861-40.358846 125.152159-3.795423l1.105513 1.120797z"
      fill="#4D4132"
      p-id="6778"
    ></path>
    <path
      d="M554.024756 53.084975c102.196219 16.164935 184.910965 80.152199 228.871642 165.495722l-0.137552 0.096796c3.45409 4.992637 5.06396 11.274189 4.03996 17.744238a24.51996 24.51996 0 0 1-28.060657 20.357732 24.51996 24.51996 0 0 1-20.128477-18.961831c-37.103443-71.730945-106.16995-125.788975-191.605174-140.72613l-4.360916-0.723422-26.430408-4.177513 0.071324-0.443224a22.263085 22.263085 0 0 1 6.836855-43.099701l0.071324-0.43813 30.832079 4.875463z"
      fill="#807567"
      p-id="6779"
    ></path>
    <path
      d="M784.557214 305.483144m-28.019901 0a28.0199 28.0199 0 1 0 56.039801 0 28.0199 28.0199 0 1 0-56.039801 0Z"
      fill="#807567"
      p-id="6780"
    ></path>
  </svg>
