<svg height="1200" node-id="1" sillyvg="true" template-height="1200" template-width="1200" version="1.1" viewBox="0 0 1200 1200" width="1200"
    xmlns="http://www.w3.org/2000/svg"
    xmlns:xlink="http://www.w3.org/1999/xlink">
    <defs node-id="98"></defs>
    <g node-id="342">
        <g node-id="364">
            <path d="M 384.90 615.90 C 383.00 616.60 381.00 616.60 379.10 616.00 L 268.20 578.60 L 222.90 629.80 C 221.90 630.90 220.80 631.70 219.50 632.20 C 218.10 632.70 216.50 632.90 214.90 632.60 C 211.90 632.10 209.40 630.00 208.30 627.20 L 175.30 543.30 L 91.40 570.10 C 88.00 571.20 84.20 570.10 82.00 567.20 C 79.80 564.40 79.50 560.50 81.30 557.40 L 132.60 470.30 L 43.80 410.70 C 41.10 408.90 39.70 405.80 40.00 402.60 C 40.30 399.40 42.40 396.70 45.30 395.50 L 129.80 360.50 L 108.00 232.10 C 107.40 228.80 108.80 225.50 111.50 223.60 C 112.10 223.20 112.80 222.80 113.50 222.60 C 115.80 221.70 118.50 221.90 120.70 223.10 L 238.60 288.00 L 308.80 190.60 C 309.80 189.20 311.20 188.10 312.80 187.60 C 314.30 187.00 316.00 186.90 317.70 187.20 C 321.10 187.90 323.70 190.60 324.40 194.00 L 344.60 296.00 L 456.10 281.80 C 459.30 281.40 462.50 282.80 464.40 285.50 C 466.20 288.20 466.40 291.70 464.80 294.60 L 418.10 378.50 L 505.50 429.60 C 508.40 431.30 510.10 434.50 509.80 437.90 C 509.50 441.20 507.30 444.10 504.20 445.20 C 504.20 445.20 404.20 481.70 404.20 481.70 L 390.60 608.70 C 390.30 611.30 388.90 613.70 386.70 615.10 C 386.00 615.40 385.50 615.70 384.90 615.90 Z" fill="#f4d12c" fill-rule="nonzero" group-id="1,23" node-id="106" stroke="none" target-height="446.00003" target-width="470.4" target-x="39.7" target-y="186.9"></path>
        </g>
        <path d="M 116.60 230.90 L 241.10 299.30 L 315.80 195.70 L 337.50 305.70 L 457.00 290.40 L 406.20 381.70 L 500.90 437.00 L 396.00 475.40 L 381.90 607.80 L 265.60 568.60 L 216.50 624.20 L 180.60 532.70 L 88.80 562.00 L 144.30 467.90 L 48.70 403.70 L 139.60 366.00 L 116.60 230.90 M 315.80 195.60 L 315.80 195.60 M 110.50 214.60 C 109.10 215.10 107.80 215.80 106.60 216.70 C 101.20 220.60 98.40 227.20 99.60 233.70 L 120.20 355.20 L 42.00 387.70 C 36.10 390.10 32.00 395.60 31.40 402.00 C 30.80 408.40 33.70 414.60 39.00 418.10 L 121.00 473.20 L 73.80 553.20 C 70.10 559.40 70.70 567.20 75.20 572.80 C 79.70 578.40 87.20 580.70 94.00 578.50 L 170.20 554.20 L 200.20 630.60 C 202.40 636.20 207.40 640.30 213.30 641.30 C 216.40 641.90 219.60 641.50 222.40 640.40 C 225.00 639.40 227.40 637.80 229.30 635.70 L 270.80 588.80 L 376.20 624.30 C 380.00 625.60 384.10 625.50 387.90 624.10 C 389.00 623.70 390.10 623.10 391.10 622.50 C 395.50 619.70 398.40 615.00 399.00 609.70 L 412.00 488.10 L 506.80 453.40 C 506.90 453.40 506.90 453.40 507.00 453.30 C 513.20 451.00 517.60 445.30 518.20 438.60 C 518.80 431.90 515.50 425.50 509.70 422.10 L 429.60 375.30 L 472.20 298.90 C 475.40 293.20 475.10 286.20 471.40 280.80 C 467.70 275.40 461.30 272.50 454.80 273.30 L 351.30 286.40 L 332.90 193.00 C 332.70 191.80 332.40 190.70 332.00 189.60 C 328.60 180.60 318.60 176.10 309.70 179.50 L 309.70 179.50 C 306.30 180.80 303.50 183.00 301.60 185.80 L 236.10 276.80 L 125.10 215.80 C 120.50 213.20 115.20 212.90 110.50 214.60 L 110.50 214.60 Z" fill="#22286e" fill-rule="nonzero" group-id="1,24" node-id="111" stroke="none" target-height="465.80002" target-width="488" target-x="30.8" target-y="176.1"></path>
    </g>
    <g node-id="343">
        <g node-id="366">
            <path d="M 331.70 524.90 C 329.80 525.60 327.80 525.60 325.90 525.00 L 269.20 505.90 L 246.80 531.30 C 245.80 532.40 244.70 533.20 243.40 533.70 C 242.00 534.20 240.40 534.40 238.80 534.10 C 235.80 533.60 233.30 531.50 232.20 528.70 L 216.00 487.40 L 174.80 500.60 C 171.40 501.70 167.60 500.60 165.40 497.70 C 163.20 494.90 162.90 491.00 164.70 487.90 L 190.20 444.70 L 145.90 415.00 C 143.20 413.20 141.80 410.10 142.10 406.90 C 142.40 403.70 144.50 401.00 147.40 399.80 L 189.60 382.30 L 178.50 316.90 C 177.90 313.60 179.30 310.30 182.00 308.40 C 182.60 308.00 183.30 307.60 184.00 307.40 C 186.30 306.50 189.00 306.70 191.20 307.90 L 251.00 340.70 L 286.40 291.60 C 287.40 290.20 288.80 289.10 290.40 288.60 C 291.90 288.00 293.60 287.90 295.30 288.20 C 298.70 288.90 301.30 291.60 302.00 295.00 L 312.00 345.80 L 367.80 338.70 C 371.00 338.30 374.20 339.70 376.10 342.40 C 377.90 345.10 378.10 348.60 376.50 351.50 L 353.50 392.80 L 396.80 418.10 C 399.70 419.80 401.40 423.00 401.10 426.40 C 400.80 429.70 398.60 432.60 395.50 433.70 C 395.50 433.70 344.40 452.40 344.40 452.40 L 337.40 517.70 C 337.10 520.30 335.70 522.70 333.50 524.10 C 332.80 524.40 332.30 524.70 331.70 524.90 Z" fill="#f9fcfd" fill-rule="nonzero" group-id="2,25" node-id="119" stroke="none" target-height="246.50003" target-width="259.59998" target-x="141.8" target-y="287.9"></path>
        </g>
        <path d="M 187.00 315.40 L 253.50 351.90 L 293.40 296.50 L 305.00 355.20 L 368.90 347.10 L 341.70 396.00 L 392.30 425.60 L 336.20 446.10 L 328.60 516.80 L 266.50 495.90 L 240.30 525.60 L 221.10 476.70 L 172.10 492.30 L 201.70 442.00 L 150.70 407.70 L 199.30 387.60 L 187.00 315.40 M 293.40 296.60 L 293.40 296.60 M 180.90 299.20 C 179.50 299.70 178.20 300.40 177.00 301.30 C 171.60 305.20 168.80 311.80 170.00 318.30 L 179.90 376.90 L 144.10 391.70 C 138.20 394.10 134.10 399.60 133.50 406.00 C 132.90 412.40 135.80 418.60 141.10 422.10 L 178.60 447.30 L 157.30 483.50 C 153.60 489.70 154.20 497.50 158.70 503.10 C 163.20 508.70 170.70 511.00 177.50 508.80 L 211.00 498.10 L 224.30 531.80 C 226.50 537.40 231.50 541.50 237.40 542.50 C 240.50 543.10 243.70 542.70 246.50 541.60 C 249.10 540.60 251.50 539.00 253.40 536.90 L 272.00 515.80 L 323.20 533.10 C 327.00 534.40 331.10 534.30 334.90 532.90 C 336.00 532.50 337.10 531.90 338.10 531.30 C 342.50 528.50 345.40 523.80 346.00 518.50 L 352.40 458.50 L 398.30 441.70 C 398.40 441.70 398.40 441.70 398.50 441.60 C 404.70 439.30 409.10 433.60 409.70 426.90 C 410.30 420.20 407.00 413.80 401.20 410.40 L 365.30 389.40 L 384.20 355.50 C 387.40 349.80 387.10 342.80 383.40 337.40 C 379.70 332.00 373.30 329.10 366.80 329.90 L 319.00 336.00 L 310.70 293.80 C 310.50 292.60 310.20 291.50 309.80 290.40 C 306.40 281.40 296.40 276.90 287.50 280.30 L 287.50 280.30 C 287.50 280.30 287.50 280.30 287.50 280.30 C 287.50 280.30 287.50 280.30 287.50 280.30 C 287.50 280.30 287.50 280.30 287.50 280.30 C 287.50 280.30 287.50 280.30 287.50 280.30 C 287.50 280.30 287.50 280.30 287.50 280.30 C 287.50 280.30 287.50 280.30 287.50 280.30 C 284.10 281.60 281.40 283.80 279.50 286.60 L 248.70 329.30 L 195.70 300.10 C 190.90 297.70 185.60 297.40 180.90 299.20 L 180.90 299.20 Z" fill="#22286e" fill-rule="nonzero" group-id="2,26" node-id="124" stroke="none" target-height="266.19998" target-width="277.4" target-x="132.9" target-y="276.9"></path>
    </g>
    <g node-id="344">
        <g node-id="368">
            <path d="M 454.50 420.30 C 449.90 422.00 445.00 422.90 440.00 422.90 L 362.80 423.10 C 340.00 423.20 321.40 404.70 321.40 381.90 C 321.30 364.80 332.10 349.20 348.10 343.10 C 352.70 341.40 357.60 340.50 362.60 340.40 L 439.80 340.20 C 450.80 340.20 461.20 344.40 469.10 352.20 C 476.90 360.00 481.30 370.40 481.30 381.40 C 481.30 398.60 470.60 414.20 454.50 420.30 Z" fill="#f9fcfd" fill-rule="nonzero" group-id="3,27" node-id="132" stroke="none" target-height="83" target-width="160" target-x="321.3" target-y="340.2"></path>
        </g>
        <path d="M 351.20 351.20 C 354.80 349.90 358.60 349.10 362.60 349.10 L 439.80 348.90 C 457.80 348.90 472.50 363.40 472.50 381.50 L 472.50 381.50 C 472.50 395.50 463.70 407.50 451.40 412.20 C 447.80 413.50 444.00 414.30 440.00 414.30 L 362.80 414.50 C 344.80 414.50 330.10 400.00 330.10 381.90 C 330.10 367.90 338.80 355.90 351.20 351.20 M 345.10 335.00 C 345.10 335.00 345.10 335.00 345.10 335.00 C 325.70 342.30 312.70 361.20 312.70 381.90 C 312.70 395.30 318.00 407.80 327.40 417.20 C 336.90 426.60 349.40 431.80 362.80 431.70 L 440.00 431.50 C 446.00 431.50 451.90 430.40 457.50 428.30 C 476.90 421.00 489.90 402.10 489.90 381.40 C 489.90 368.00 484.60 355.50 475.20 346.10 C 465.70 336.70 453.20 331.50 439.80 331.60 L 362.60 331.80 C 356.60 331.80 350.70 332.90 345.10 335.00 L 345.10 335.00 Z" fill="#22286e" fill-rule="nonzero" group-id="3,28" node-id="137" stroke="none" target-height="100.29999" target-width="177.19998" target-x="312.7" target-y="331.5"></path>
    </g>
    <g node-id="345">
        <g node-id="370">
            <path d="M 974.20 433.90 C 973.20 434.30 972.20 434.50 971.20 434.50 L 622.00 435.40 C 619.30 435.40 616.70 434.10 615.00 431.90 C 613.40 429.70 612.80 426.90 613.60 424.20 L 641.10 330.90 C 645.50 315.90 657.20 303.50 672.30 297.80 C 678.30 295.50 684.70 294.40 691.20 294.30 L 905.70 293.70 C 929.90 293.60 950.80 309.40 956.50 332.10 L 979.60 423.50 C 980.30 426.10 979.70 428.80 978.00 430.90 C 977.00 432.40 975.70 433.30 974.20 433.90 Z" fill="#f9fcfd" fill-rule="nonzero" group-id="4,29" node-id="145" stroke="none" target-height="141.79999" target-width="367.5" target-x="612.8" target-y="293.6"></path>
        </g>
        <path d="M 675.40 306.00 C 680.30 304.10 685.70 303.10 691.20 303.10 L 905.70 302.50 C 925.80 302.40 943.40 315.60 948.10 334.30 L 971.20 425.70 L 622.00 426.70 L 649.50 333.40 C 653.20 320.60 663.00 310.70 675.40 306.00 M 669.20 289.80 C 669.20 289.80 669.20 289.80 669.20 289.80 C 651.60 296.50 638.00 310.90 632.80 328.50 L 605.30 421.80 C 603.80 427.10 604.80 432.70 608.10 437.10 C 611.40 441.50 616.50 444.10 622.00 444.00 L 971.20 443.10 C 973.30 443.10 975.40 442.70 977.30 442.00 C 980.30 440.90 982.90 439.00 984.90 436.40 C 988.20 432.20 989.30 426.70 988.00 421.50 L 964.90 330.10 C 958.20 303.60 933.80 285.10 905.60 285.20 L 691.10 285.80 C 683.60 285.80 676.20 287.10 669.20 289.80 L 669.20 289.80 Z" fill="#22286e" fill-rule="nonzero" group-id="4,30" node-id="150" stroke="none" target-height="159" target-width="385.5" target-x="603.8" target-y="285.1"></path>
    </g>
    <g node-id="346">
        <path d="M 948.10 334.30 C 943.40 315.60 925.80 302.40 905.70 302.50 L 859.40 302.60 C 879.50 302.50 897.10 315.70 901.80 334.40 L 924.90 425.80 L 971.20 425.70 L 948.10 334.30 Z" fill="#73c0d7" fill-rule="nonzero" group-id="5" node-id="156" stroke="none" target-height="123.399994" target-width="111.79999" target-x="859.4" target-y="302.4"></path>
    </g>
    <g node-id="347">
        <g node-id="372">
            <path d="M 1044.20 990.70 C 1033.40 994.80 1021.90 996.90 1010.20 996.90 L 327.60 998.70 C 274.10 998.80 230.50 955.50 230.40 902.00 L 229.30 481.00 C 229.20 440.80 254.40 404.20 292.00 390.00 C 302.80 385.90 314.30 383.80 326.00 383.80 L 1008.60 382.00 C 1062.10 381.90 1105.70 425.20 1105.80 478.70 L 1106.90 899.80 C 1107.10 939.90 1081.90 976.50 1044.20 990.70 Z" fill="#1e7cb9" fill-rule="nonzero" group-id="6,31" node-id="163" stroke="none" target-height="616.9" target-width="877.89996" target-x="229.2" target-y="381.9"></path>
        </g>
        <path d="M 295.10 398.10 C 304.70 394.50 315.10 392.50 326.00 392.40 L 1008.60 390.60 C 1057.40 390.50 1097.00 429.90 1097.10 478.70 L 1098.20 899.80 C 1098.30 937.70 1074.50 970.10 1041.10 982.70 C 1031.50 986.30 1021.10 988.30 1010.20 988.40 L 327.60 990.20 C 278.80 990.30 239.20 950.90 239.10 902.10 L 238.00 480.90 C 237.90 443.10 261.70 410.70 295.10 398.10 M 289.00 381.80 C 289.00 381.80 289.00 381.80 289.00 381.80 C 248.00 397.30 220.50 437.10 220.60 481.00 L 221.70 902.10 C 221.90 960.30 269.40 1007.60 327.60 1007.50 L 1010.20 1005.70 C 1022.90 1005.70 1035.40 1003.40 1047.20 998.90 C 1088.20 983.40 1115.70 943.60 1115.60 899.80 L 1114.50 478.70 C 1114.30 420.50 1066.80 373.20 1008.60 373.30 L 326.00 375.10 C 313.30 375.10 300.80 377.40 289.00 381.80 L 289.00 381.80 Z" fill="#22286e" fill-rule="nonzero" group-id="6,32,55" node-id="170" stroke="none" target-height="634.39996" target-width="895.19995" target-x="220.5" target-y="373.2"></path>
    </g>
    <g node-id="348">
        <path d="M 278.70 940.90 L 277.50 496.60 C 277.40 454.20 311.60 419.80 354.00 419.70 L 1059.80 417.80 C 1067.40 417.80 1067.80 416.90 1074.70 418.90 C 1060.70 400.40 1045.40 390.40 1020.30 390.50 L 314.50 392.40 C 272.10 392.50 237.90 426.90 238.00 469.30 L 239.20 913.60 C 239.30 948.40 262.60 977.70 294.30 987.00 C 284.60 974.20 278.70 958.30 278.70 940.90 Z" fill="#73c0d7" fill-rule="nonzero" group-id="7" node-id="177" stroke="none" target-height="596.6" target-width="836.7999" target-x="237.9" target-y="390.4"></path>
    </g>
    <g node-id="349">
        <g node-id="374">
            <path d="M 1043.70 992.80 C 1032.90 996.90 1021.40 999.00 1009.70 999.00 L 327.70 1000.80 C 274.20 1000.90 230.60 957.60 230.50 904.10 L 229.60 578.80 C 229.60 576.50 230.50 574.30 232.10 572.70 C 233.00 571.80 234.00 571.10 235.20 570.70 C 236.20 570.30 237.20 570.10 238.20 570.10 L 1096.80 567.80 C 1101.60 567.80 1105.50 571.70 1105.50 576.40 L 1106.40 901.70 C 1106.50 942.00 1081.30 978.60 1043.70 992.80 Z" fill="#73c0d7" fill-rule="nonzero" group-id="8,33" node-id="184" stroke="none" target-height="433.10004" target-width="876.9" target-x="229.6" target-y="567.8"></path>
        </g>
        <path d="M 238.30 578.80 L 1096.90 576.50 L 1097.80 901.80 C 1097.90 939.70 1074.10 972.00 1040.70 984.70 C 1031.10 988.30 1020.70 990.30 1009.80 990.40 L 327.80 992.20 C 279.00 992.30 239.40 952.90 239.30 904.20 L 238.30 578.80 M 232.20 562.60 C 225.60 565.10 221.00 571.40 221.00 578.90 L 221.90 904.20 C 222.10 962.40 269.60 1009.70 327.80 1009.50 L 1009.80 1007.70 C 1022.50 1007.70 1035.00 1005.40 1046.80 1000.90 C 1087.80 985.40 1115.30 945.60 1115.10 901.80 L 1114.20 576.50 C 1114.20 571.90 1112.30 567.50 1109.10 564.30 C 1105.80 561.10 1101.40 559.20 1096.80 559.30 L 238.20 561.60 C 236.10 561.50 234.00 561.90 232.20 562.60 L 232.20 562.60 Z" fill="#22286e" fill-rule="nonzero" group-id="8,34" node-id="189" stroke="none" target-height="450.5" target-width="894.30005" target-x="221" target-y="559.2"></path>
    </g>
    <g node-id="350">
        <path d="M 1058.40 576.60 L 1059.20 873.20 C 1059.30 915.60 1025.10 950.00 982.70 950.10 L 277.50 952.00 C 265.90 952.00 254.90 949.40 245.00 944.80 C 256.50 972.70 284.00 992.30 316.10 992.20 L 1021.30 990.30 C 1063.70 990.20 1097.90 955.80 1097.80 913.40 L 1096.90 576.50 L 1058.40 576.60 Z" fill="#1e7cb9" fill-rule="nonzero" group-id="9" node-id="195" stroke="none" target-height="415.8" target-width="852.9" target-x="245" target-y="576.5"></path>
    </g>
    <g node-id="351">
        <g node-id="376">
            <path d="M 881.40 913.10 C 854.70 923.20 826.70 928.30 797.90 928.40 C 734.20 928.60 674.30 903.90 629.20 859.00 C 584.10 814.10 559.10 754.30 558.90 690.60 C 558.60 591.70 620.60 501.80 713.10 466.90 C 739.80 456.80 767.80 451.70 796.60 451.60 C 860.30 451.40 920.20 476.10 965.30 521.00 C 1010.40 565.90 1035.40 625.70 1035.60 689.40 C 1035.90 788.30 973.90 878.20 881.40 913.10 Z" fill="#de5c3b" fill-rule="nonzero" group-id="10,35" node-id="202" stroke="none" target-height="477.19998" target-width="477.30005" target-x="558.6" target-y="451.4"></path>
        </g>
        <path d="M 716.20 475.00 C 741.20 465.60 768.30 460.40 796.60 460.30 C 923.50 460.00 1026.60 562.50 1026.90 689.40 C 1027.20 787.90 965.30 872.20 878.30 905.00 C 853.30 914.40 826.20 919.60 797.90 919.70 C 671.00 920.00 567.90 817.50 567.60 690.60 C 567.30 592.10 629.10 507.90 716.20 475.00 M 710.10 458.80 L 716.20 475.00 L 710.10 458.80 C 710.10 458.80 710.10 458.80 710.10 458.80 C 663.50 476.40 623.70 507.30 594.90 548.20 C 565.50 590.10 550.00 639.30 550.20 690.60 C 550.40 756.60 576.20 818.60 623.00 865.10 C 669.80 911.60 731.90 937.20 797.90 937.00 C 827.70 936.90 856.80 931.60 884.40 921.20 C 931.00 903.60 970.80 872.70 999.50 831.80 C 1028.90 789.90 1044.40 740.70 1044.20 689.40 C 1043.80 553.20 932.70 442.70 796.50 443.00 C 766.80 443.00 737.70 448.40 710.10 458.80 L 710.10 458.80 Z" fill="#22286e" fill-rule="nonzero" group-id="10,36" node-id="207" stroke="none" target-height="494.5" target-width="494.40002" target-x="550" target-y="442.7"></path>
    </g>
    <g node-id="352">
        <g node-id="378">
            <path d="M 870.20 883.40 C 847.10 892.10 822.70 896.60 797.80 896.60 C 742.60 896.70 690.60 875.40 651.50 836.50 C 612.40 797.60 590.70 745.70 590.60 690.50 C 590.40 604.70 644.10 526.80 724.30 496.50 C 747.40 487.80 771.80 483.30 796.70 483.30 C 851.90 483.20 903.90 504.50 943.00 543.40 C 982.10 582.30 1003.80 634.20 1003.90 689.40 C 1004.20 775.20 950.40 853.20 870.20 883.40 Z" fill="#f9fcfd" fill-rule="nonzero" group-id="11,37" node-id="215" stroke="none" target-height="413.5" target-width="413.8" target-x="590.4" target-y="483.2"></path>
        </g>
        <path d="M 727.40 504.70 C 749.00 496.60 772.30 492.10 796.70 492.00 C 906.10 491.70 994.90 580.10 995.20 689.50 C 995.40 774.40 942.10 847.00 867.10 875.40 C 845.50 883.50 822.20 888.00 797.80 888.10 C 688.40 888.40 599.60 800.00 599.30 690.60 C 599.00 605.60 652.30 533.00 727.40 504.70 M 721.30 488.40 C 721.30 488.40 721.30 488.40 721.30 488.40 C 637.70 520.00 581.70 601.20 581.90 690.60 C 582.20 809.30 679.10 905.70 797.80 905.40 C 823.80 905.30 849.10 900.70 873.20 891.60 C 956.80 860.10 1012.80 778.80 1012.50 689.50 C 1012.30 632.00 989.80 578.00 949.00 537.40 C 908.20 496.80 854.10 474.60 796.60 474.70 C 770.70 474.70 745.40 479.40 721.30 488.40 L 721.30 488.40 Z" fill="#22286e" fill-rule="nonzero" group-id="11,38" node-id="220" stroke="none" target-height="431.1" target-width="431.09998" target-x="581.7" target-y="474.6"></path>
    </g>
    <g node-id="353">
        <g node-id="380">
            <path d="M 491.60 544.60 C 488.20 545.90 484.70 546.50 481.00 546.50 C 472.90 546.50 465.40 543.40 459.70 537.70 C 454.00 532.00 450.80 524.50 450.80 516.40 C 450.80 503.90 458.60 492.50 470.30 488.10 C 473.70 486.80 477.20 486.20 480.90 486.20 C 489.00 486.20 496.50 489.30 502.20 495.00 C 507.90 500.70 511.10 508.20 511.10 516.30 C 511.10 528.80 503.30 540.20 491.60 544.60 Z" fill="#e58456" fill-rule="nonzero" group-id="12,39" node-id="228" stroke="none" target-height="60.299988" target-width="60.30002" target-x="450.8" target-y="486.2"></path>
        </g>
        <path d="M 473.40 496.30 C 475.70 495.40 478.30 494.90 480.90 494.90 C 492.80 494.90 502.40 504.50 502.40 516.30 C 502.40 525.50 496.60 533.40 488.50 536.50 C 486.20 537.40 483.60 537.90 481.00 537.90 C 469.10 537.90 459.50 528.30 459.50 516.50 C 459.40 507.20 465.20 499.40 473.40 496.30 M 467.20 480.10 C 467.20 480.10 467.20 480.10 467.20 480.10 C 452.10 485.80 442.00 500.40 442.10 516.50 C 442.20 537.90 459.60 555.30 481.00 555.20 C 485.70 555.20 490.20 554.30 494.60 552.70 C 509.70 547.00 519.80 532.40 519.70 516.30 C 519.60 494.90 502.20 477.50 480.80 477.60 C 476.20 477.60 471.60 478.40 467.20 480.10 L 467.20 480.10 Z" fill="#22286e" fill-rule="nonzero" group-id="12,40" node-id="233" stroke="none" target-height="77.79999" target-width="77.79999" target-x="442" target-y="477.5"></path>
    </g>
    <g node-id="354">
        <g node-id="382">
            <path d="M 1033.80 502.10 C 1030.50 503.30 1027.10 504.00 1023.60 504.00 L 1000.80 504.10 C 984.80 504.10 971.70 491.10 971.60 475.10 L 971.50 452.30 C 971.50 440.20 979.00 429.20 990.30 425.00 C 993.60 423.80 997.00 423.10 1000.50 423.10 L 1023.30 423.00 C 1039.30 423.00 1052.40 436.00 1052.50 452.00 L 1052.60 474.80 C 1052.70 486.80 1045.10 497.80 1033.80 502.10 Z" fill="#f9fcfd" fill-rule="nonzero" group-id="13,41" node-id="241" stroke="none" target-height="81.100006" target-width="81.19995" target-x="971.5" target-y="423"></path>
        </g>
        <path d="M 993.40 432.90 C 995.60 432.10 998.00 431.60 1000.60 431.60 L 1023.40 431.50 C 1034.70 431.50 1043.90 440.60 1043.90 451.90 L 1044.00 474.70 C 1044.00 483.50 1038.50 491.00 1030.80 493.90 C 1028.60 494.70 1026.20 495.20 1023.60 495.20 L 1000.80 495.30 C 989.50 495.30 980.30 486.20 980.30 474.90 L 980.20 452.10 C 980.20 443.40 985.70 435.90 993.40 432.90 M 987.30 416.70 C 987.30 416.70 987.30 416.70 987.30 416.70 C 972.60 422.20 962.80 436.50 962.90 452.20 L 963.00 475.00 C 963.10 495.80 980.10 512.70 1000.90 512.70 L 1023.70 512.60 C 1028.20 512.60 1032.70 511.80 1036.90 510.20 C 1051.60 504.70 1061.40 490.40 1061.30 474.70 L 1061.20 451.90 C 1061.10 431.10 1044.10 414.20 1023.30 414.20 L 1000.50 414.30 C 996.00 414.30 991.60 415.10 987.30 416.70 L 987.30 416.70 Z" fill="#22286e" fill-rule="nonzero" group-id="13,42" node-id="246" stroke="none" target-height="98.5" target-width="98.60004" target-x="962.8" target-y="414.2"></path>
    </g>
    <g node-id="355">
        <g node-id="384">
            <path d="M 863.00 864.30 C 842.20 872.20 820.20 876.20 797.80 876.20 C 748.00 876.30 701.20 857.10 666.00 822.00 C 630.70 786.90 611.20 740.20 611.10 690.50 C 610.90 613.20 659.30 543.00 731.60 515.70 C 752.40 507.80 774.40 503.80 796.80 503.80 C 899.50 503.50 983.20 586.80 983.50 689.50 C 983.70 766.80 935.30 837.00 863.00 864.30 Z" fill="#1e7cb9" fill-rule="nonzero" group-id="14,43" node-id="254" stroke="none" target-height="372.8" target-width="372.8" target-x="610.9" target-y="503.5"></path>
        </g>
        <path d="M 734.60 523.80 C 753.90 516.50 774.90 512.50 796.80 512.40 C 894.80 512.10 974.50 591.40 974.80 689.40 C 975.00 765.60 927.20 830.60 859.90 856.00 C 840.60 863.30 819.60 867.30 797.70 867.40 C 699.70 867.70 620.00 788.40 619.70 690.40 C 619.50 614.30 667.30 549.20 734.60 523.80 M 728.50 507.60 C 728.50 507.60 728.50 507.60 728.50 507.60 C 652.90 536.10 602.20 609.60 602.40 690.50 C 602.50 742.50 622.90 791.40 659.80 828.10 C 696.70 864.80 745.70 884.90 797.70 884.80 C 821.20 884.70 844.20 880.50 865.90 872.30 C 941.50 843.80 992.20 770.30 992.00 689.40 C 991.70 582.00 904.10 494.80 796.60 495.10 C 773.30 495.20 750.30 499.40 728.50 507.60 L 728.50 507.60 Z" fill="#22286e" fill-rule="nonzero" group-id="14,44" node-id="259" stroke="none" target-height="390.10004" target-width="390" target-x="602.2" target-y="494.8"></path>
    </g>
    <g node-id="356">
        <path d="M 925.60 690.00 C 925.60 760.86 868.16 818.30 797.30 818.30 C 726.44 818.30 669.00 760.86 669.00 690.00 C 669.00 619.14 726.44 561.70 797.30 561.70 C 868.16 561.70 925.60 619.14 925.60 690.00 Z" fill="#73c0d7" fill-rule="nonzero" group-id="15" node-id="265" stroke="none" target-height="256.59998" target-width="256.59998" target-x="669" target-y="561.7"></path>
        <path d="M 845.50 818.20 C 830.60 823.80 814.50 826.90 797.60 827.00 C 722.10 827.20 660.40 765.90 660.20 690.40 C 660.00 614.90 721.30 553.20 796.80 553.00 C 872.30 552.80 934.00 614.10 934.20 689.60 L 934.20 689.60 C 934.40 748.30 897.40 798.60 845.50 818.20 Z M 755.20 578.00 C 709.80 595.10 677.50 639.10 677.70 690.30 C 677.90 756.30 731.70 809.80 797.70 809.60 C 863.70 809.40 917.20 755.60 917.00 689.60 C 916.80 623.60 863.00 570.10 797.00 570.30 C 782.30 570.40 768.20 573.10 755.20 578.00 Z" fill="#22286e" fill-rule="nonzero" group-id="15" node-id="267" stroke="none" target-height="274.40002" target-width="274.40002" target-x="660" target-y="552.8"></path>
    </g>
    <g node-id="357">
        <g node-id="386">
            <path d="M 342.20 923.60 L 238.90 923.90 L 237.80 514.00 L 341.10 513.70 C 389.50 513.60 428.80 552.70 428.90 601.00 L 429.50 835.70 C 429.70 884.10 390.60 923.40 342.20 923.60 Z" fill="#1e7cb9" fill-rule="nonzero" group-id="16,45" node-id="274" stroke="none" target-height="410.30005" target-width="191.90001" target-x="237.8" target-y="513.6"></path>
        </g>
    </g>
    <g node-id="358">
        <g node-id="387">
            <path d="M 814.30 735.10 C 808.90 737.10 803.20 738.20 797.40 738.20 C 770.80 738.30 749.10 716.70 749.10 690.10 C 749.00 670.10 761.60 651.90 780.30 644.80 C 785.70 642.80 791.40 641.70 797.20 641.70 C 823.80 641.60 845.50 663.20 845.50 689.80 C 845.50 709.90 833.00 728.10 814.30 735.10 Z" fill="#1e7cb9" fill-rule="nonzero" group-id="17,46" node-id="282" stroke="none" target-height="96.70001" target-width="96.5" target-x="749" target-y="641.6"></path>
        </g>
        <path d="M 783.30 653.00 C 787.60 651.40 792.30 650.50 797.10 650.50 C 818.90 650.40 836.70 668.10 836.70 689.90 C 836.70 706.90 826.10 721.40 811.10 727.00 C 806.80 728.60 802.10 729.50 797.30 729.50 C 775.50 729.60 757.70 711.90 757.70 690.10 C 757.70 673.10 768.30 658.60 783.30 653.00 M 777.20 636.80 C 777.20 636.80 777.20 636.80 777.20 636.80 C 755.10 645.10 740.30 666.60 740.40 690.20 C 740.40 705.40 746.40 719.70 757.20 730.40 C 768.00 741.10 782.30 747.00 797.50 747.00 C 804.40 747.00 811.10 745.80 817.40 743.40 C 839.50 735.10 854.30 713.60 854.20 690.00 C 854.10 658.60 828.50 633.20 797.20 633.30 C 790.30 633.10 783.60 634.40 777.20 636.80 L 777.20 636.80 Z" fill="#22286e" fill-rule="nonzero" group-id="17,47" node-id="287" stroke="none" target-height="113.900024" target-width="114" target-x="740.3" target-y="633.1"></path>
    </g>
    <g node-id="359">
        <g node-id="389">
            <path d="M 793.81 569.61 L 796.53 573.96 L 798.82 578.40 L 800.67 582.95 L 802.11 587.62 L 803.16 592.41 L 803.81 597.23 L 804.07 602.08 L 803.94 606.99 L 803.42 611.87 L 802.53 616.70 L 801.26 621.49 L 799.61 626.26 L 797.61 630.87 L 795.26 635.35 L 792.54 639.71 L 789.45 643.96 L 786.07 647.94 L 782.35 651.70 L 778.27 655.26 L 773.80 658.62 L 769.09 661.61 L 764.32 664.18 L 759.49 666.34 L 754.57 668.10 L 749.51 669.50 L 744.47 670.50 L 739.45 671.12 L 734.43 671.36 L 729.39 671.23 L 724.46 670.73 L 719.62 669.86 L 714.87 668.63 L 710.23 667.03 L 705.78 665.08 L 701.50 662.77 L 697.39 660.10 L 693.52 657.11 L 689.92 653.77 L 686.57 650.07 L 683.46 645.99 L 680.73 641.64 L 678.45 637.20 L 676.60 632.65 L 675.15 627.98 L 674.11 623.19 L 673.45 618.37 L 673.20 613.52 L 673.33 608.61 L 673.85 603.73 L 674.74 598.90 L 676.01 594.10 L 677.66 589.34 L 679.66 584.72 L 682.01 580.24 L 684.72 575.89 L 687.82 571.64 L 691.19 567.66 L 694.92 563.89 L 699.00 560.33 L 703.46 556.98 L 708.18 553.98 L 712.94 551.42 L 717.78 549.26 L 722.70 547.50 L 727.76 546.10 L 732.79 545.10 L 737.82 544.48 L 742.84 544.23 L 747.88 544.37 L 752.81 544.87 L 757.64 545.73 L 762.39 546.97 L 767.04 548.57 L 771.49 550.52 L 775.77 552.83 L 779.88 555.50 L 783.74 558.49 L 787.35 561.83 L 790.70 565.53 L 793.81 569.61 Z" fill="#f9fcfd" fill-rule="nonzero" group-id="18,48" node-id="295" stroke="none" target-height="127.130005" target-width="130.87" target-x="673.2" target-y="544.23"></path>
        </g>
    </g>
    <g node-id="360">
        <g node-id="390">
            <path d="M 591.80 897.10 C 589.70 897.90 587.60 898.30 585.30 898.30 L 470.30 898.60 C 465.40 898.60 460.70 896.70 457.20 893.20 C 453.70 889.70 451.80 885.10 451.80 880.10 C 451.80 872.40 456.60 865.50 463.80 862.80 C 465.90 862.00 468.00 861.60 470.30 861.60 L 585.30 861.30 C 595.50 861.30 603.80 869.50 603.80 879.70 C 603.80 887.40 599.00 894.40 591.80 897.10 Z" fill="#e58456" fill-rule="nonzero" group-id="19,49" node-id="303" stroke="none" target-height="37.299988" target-width="152" target-x="451.8" target-y="861.3"></path>
        </g>
        <path d="M 466.80 870.90 C 467.90 870.50 469.00 870.30 470.20 870.30 L 585.20 870.00 C 590.60 870.00 595.00 874.40 595.00 879.80 C 595.00 884.00 592.40 887.60 588.70 889.00 C 587.60 889.40 586.50 889.60 585.30 889.60 L 470.30 889.90 C 464.90 889.90 460.50 885.50 460.50 880.10 C 460.40 875.90 463.10 872.30 466.80 870.90 M 460.70 854.70 C 460.70 854.70 460.70 854.70 460.70 854.70 C 450.20 858.70 443.10 868.90 443.10 880.20 C 443.10 895.20 455.40 907.30 470.30 907.30 L 585.30 907.00 C 588.60 907.00 591.80 906.40 594.80 905.30 C 605.30 901.30 612.40 891.10 612.40 879.80 C 612.40 872.50 609.50 865.70 604.40 860.60 C 599.30 855.50 592.40 852.70 585.20 852.70 L 470.20 853.00 C 466.90 853.00 463.70 853.60 460.70 854.70 L 460.70 854.70 Z" fill="#22286e" fill-rule="nonzero" group-id="19,50" node-id="308" stroke="none" target-height="54.599976" target-width="169.30002" target-x="443.1" target-y="852.7"></path>
    </g>
    <g node-id="361">
        <g node-id="392">
            <path d="M 591.90 935.60 C 589.80 936.40 587.70 936.80 585.40 936.80 L 470.40 937.10 C 465.50 937.10 460.80 935.20 457.30 931.70 C 453.80 928.20 451.90 923.60 451.90 918.60 C 451.90 910.90 456.70 904.00 463.90 901.30 C 466.00 900.50 468.10 900.10 470.40 900.10 L 585.40 899.80 C 595.60 899.80 603.90 908.00 603.90 918.20 C 603.90 925.90 599.10 932.90 591.90 935.60 Z" fill="#e58456" fill-rule="nonzero" group-id="20,51" node-id="316" stroke="none" target-height="37.299988" target-width="152.00003" target-x="451.9" target-y="899.8"></path>
        </g>
        <path d="M 466.90 909.40 C 468.00 909.00 469.10 908.80 470.30 908.80 L 585.30 908.50 C 590.70 908.50 595.10 912.90 595.10 918.30 C 595.10 922.50 592.50 926.10 588.80 927.50 C 587.70 927.90 586.60 928.10 585.40 928.10 L 470.40 928.40 C 465.00 928.40 460.60 924.00 460.60 918.60 C 460.50 914.40 463.20 910.80 466.90 909.40 M 460.80 893.20 C 460.80 893.20 460.80 893.20 460.80 893.20 C 450.30 897.20 443.20 907.40 443.20 918.70 C 443.20 933.70 455.50 945.80 470.40 945.80 L 585.40 945.50 C 588.70 945.50 591.90 944.90 594.90 943.80 C 605.40 939.80 612.50 929.60 612.50 918.30 C 612.50 903.30 600.20 891.20 585.30 891.20 L 470.30 891.50 C 467.00 891.50 463.80 892.10 460.80 893.20 L 460.80 893.20 Z" fill="#22286e" fill-rule="nonzero" group-id="20,52" node-id="321" stroke="none" target-height="54.599976" target-width="169.29999" target-x="443.2" target-y="891.2"></path>
    </g>
    <g node-id="362">
        <g node-id="394">
            <path d="M 348.90 898.70 C 338.10 902.80 326.80 904.80 315.20 904.90 L 238.90 905.10 C 234.10 905.10 230.20 901.20 230.20 896.50 L 229.10 486.60 C 229.10 482.90 231.40 479.70 234.70 478.50 C 235.60 478.10 236.70 477.90 237.70 477.90 L 314.00 477.70 C 339.70 477.60 363.90 487.60 382.10 505.70 C 400.30 523.80 410.40 548.00 410.50 573.70 L 411.10 808.40 C 411.30 848.30 386.20 884.60 348.90 898.70 Z" fill="#9aa2cc" fill-rule="nonzero" group-id="21,53" node-id="329" stroke="none" target-height="427.49997" target-width="182.19998" target-x="229.1" target-y="477.6"></path>
        </g>
        <path d="M 237.70 486.60 L 314.00 486.40 C 362.40 486.30 401.70 525.40 401.80 573.70 L 402.40 808.40 C 402.50 846.00 378.90 878.10 345.70 890.60 C 336.20 894.20 325.80 896.20 315.00 896.20 L 238.70 896.40 L 237.70 486.60 M 231.60 470.30 C 229.30 471.20 227.20 472.50 225.40 474.30 C 222.20 477.60 220.30 482.00 220.40 486.60 L 221.50 896.50 C 221.50 901.10 223.40 905.50 226.60 908.70 C 229.90 911.90 234.30 913.80 238.90 913.70 L 315.20 913.50 C 327.80 913.50 340.20 911.20 351.90 906.80 C 392.60 891.40 419.90 851.90 419.80 808.30 L 419.20 573.60 C 419.10 545.60 408.10 519.30 388.30 499.50 C 368.40 479.80 342.00 468.90 314.00 469.00 L 237.70 469.20 C 235.60 469.20 233.50 469.60 231.60 470.30 L 231.60 470.30 Z" fill="#22286e" fill-rule="nonzero" group-id="21,54" node-id="334" stroke="none" target-height="444.9" target-width="199.59999" target-x="220.3" target-y="468.9"></path>
    </g>
    <path d="M 264.80 519.10 L 352.60 518.90 C 368.50 518.90 383.20 523.70 395.40 532.00 C 383.60 505.10 356.80 486.30 325.50 486.40 L 237.70 486.60 L 238.80 896.50 L 265.80 896.40 L 264.80 519.10 Z" fill="#f9fcfd" fill-rule="nonzero" group-id="22" node-id="340" stroke="none" target-height="410.2" target-width="157.7" target-x="237.7" target-y="486.3"></path>
</svg>