<svg height="1200" node-id="1" sillyvg="true" template-height="1200" template-width="1200" version="1.1" viewBox="0 0 1200 1200" width="1200"
    xmlns="http://www.w3.org/2000/svg"
    xmlns:xlink="http://www.w3.org/1999/xlink">
    <defs node-id="18">
        <clipPath id="XMLID_3_" node-id="7">
            <path d="M 1050.80 605.70 C 1050.80 726.08 1002.98 841.53 917.86 926.66 C 832.73 1011.78 717.28 1059.60 596.90 1059.60 C 476.52 1059.60 361.07 1011.78 275.94 926.66 C 190.82 841.53 143.00 726.08 143.00 605.70 C 143.00 485.32 190.82 369.87 275.94 284.74 C 361.07 199.62 476.52 151.80 596.90 151.80 C 717.28 151.80 832.73 199.62 917.86 284.74 C 1002.98 369.87 1050.80 485.32 1050.80 605.70 Z" fill="#000000" fill-rule="nonzero" node-id="21" stroke="none" target-height="907.8" target-width="907.80005" target-x="143" target-y="151.8"></path>
        </clipPath>
    </defs>
    <g node-id="48">
        <g node-id="49">
            <g clip-path="url(#XMLID_3_)" group-id="1,2" id="sillyvg_g_1" node-id="27">
                <path d="M 424.10 550.00 C 425.50 580.00 437.40 612.80 469.40 644.90 C 410.50 644.90 362.70 597.20 362.70 538.30 C 362.70 508.90 374.70 482.20 394.00 462.90 C 413.30 443.60 440.00 431.60 469.40 431.60 C 469.50 431.60 421.00 484.00 424.10 550.00 Z" fill="#33312b" fill-rule="nonzero" group-id="1,2" node-id="29" stroke="none" target-height="213.30002" target-width="106.79999" target-x="362.7" target-y="431.6"></path>
                <path d="M 469.50 431.60 L 604.00 431.60 L 591.30 460.90 C 583.00 468.90 576.70 478.90 573.20 490.30 C 571.20 496.70 570.10 503.50 570.10 510.70 L 570.10 644.80 L 469.50 644.80 C 437.50 612.80 425.50 579.90 424.20 549.90 C 421.00 484.00 469.50 431.60 469.50 431.60 Z" fill="#1c1b17" fill-rule="nonzero" group-id="1,2" node-id="31" stroke="none" target-height="213.19998" target-width="183" target-x="421" target-y="431.6"></path>
                <path d="M 731.30 406.00 L 744.90 707.50 C 744.90 707.50 750.00 836.00 681.60 871.60 C 697.80 859.00 708.30 839.30 708.30 817.20 L 708.30 510.80 C 708.30 499.40 705.50 488.70 700.60 479.20 L 729.20 415.00 C 730.50 412.10 731.20 409.00 731.30 406.00 Z" fill="#a4cbc0" fill-rule="nonzero" group-id="1,2" node-id="33" stroke="none" target-height="465.59998" target-width="68.400024" target-x="681.6" target-y="406"></path>
                <path d="M 731.30 406.00 C 731.20 409.00 730.60 412.10 729.20 415.00 L 707.00 499.30 C 703.80 492.90 693.10 466.90 688.00 461.90 C 675.50 449.40 658.30 441.60 639.20 441.60 C 620.50 441.60 603.70 449.00 591.30 460.90 L 604.00 431.60 L 624.00 385.70 C 628.40 375.50 638.80 369.30 649.90 370.40 C 669.30 372.50 692.30 376.30 710.50 379.50 C 723.60 381.90 732.10 393.60 731.30 406.00 Z" fill="#33312b" fill-rule="nonzero" group-id="1,2" node-id="35" stroke="none" target-height="130" target-width="140.79999" target-x="591.3" target-y="369.3"></path>
                <path d="M 700.60 479.20 C 705.50 488.70 708.30 499.40 708.30 510.80 L 708.30 817.20 C 708.30 839.30 697.80 859.00 681.60 871.60 C 681.60 871.60 681.50 871.70 681.40 871.70 C 669.80 880.90 655.20 886.20 639.30 886.20 C 601.10 886.20 570.20 855.30 570.20 817.20 L 570.20 644.90 L 570.20 510.80 C 570.20 503.70 571.30 496.80 573.30 490.40 C 576.80 479.00 583.10 469.00 591.40 461.00 C 603.80 449.00 620.60 441.70 639.30 441.70 C 658.40 441.70 675.60 449.50 688.10 462.00 C 693.10 466.90 697.40 472.80 700.60 479.20 Z" fill="#1c1b17" fill-rule="nonzero" group-id="1,2" node-id="37" stroke="none" target-height="444.5" target-width="138.09998" target-x="570.2" target-y="441.7"></path>
            </g>
        </g>
        <path d="M 1050.80 605.70 C 1050.80 726.08 1002.98 841.53 917.86 926.66 C 832.73 1011.78 717.28 1059.60 596.90 1059.60 C 476.52 1059.60 361.07 1011.78 275.94 926.66 C 190.82 841.53 143.00 726.08 143.00 605.70 C 143.00 485.32 190.82 369.87 275.94 284.74 C 361.07 199.62 476.52 151.80 596.90 151.80 C 717.28 151.80 832.73 199.62 917.86 284.74 C 1002.98 369.87 1050.80 485.32 1050.80 605.70 Z" fill="none" group-id="1,3" node-id="42" stroke="#3d211b" stroke-linecap="butt" stroke-width="4" target-height="907.8" target-width="907.80005" target-x="143" target-y="151.8"></path>
    </g>
</svg>