<svg t="1691069852805" class="icon" viewBox="0 0 1024 1024" version="1.1"
    xmlns="http://www.w3.org/2000/svg" p-id="27369" width="200" height="200">
    <path d="M858.84974545 751.19616h-693.6994909c-35.38819879 0-64.17532121-28.79255273-64.17532121-64.18075152v-452.22477575c0-35.38711273 28.78712243-64.17532121 64.17532121-64.17532121h693.6994909c35.38276848 0 64.17532121 28.78820848 64.17532121 64.17532121v452.22477575c0 35.38819879-28.79255273 64.18075152-64.17532121 64.18075152z m-693.6994909-523.83418182a7.43517091 7.43517091 0 0 0-7.42865455 7.42865455v452.22477575c0 4.09770666 3.32986182 7.43408485 7.42865455 7.43408486h693.6994909c4.09227636 0 7.42865455-3.33637818 7.42865455-7.43408486v-452.22477575c0-4.09770666-3.33637818-7.42865455-7.42865455-7.42865455h-693.6994909z" fill="#2C2C2C" p-id="27370"></path>
    <path d="M885.26273939 650.5987103h-746.52547878a28.37550545 28.37550545 0 1 1 0-56.75209696h746.52547878a28.37550545 28.37550545 0 1 1 0 56.75209696zM686.53102545 885.95238788H337.47006061a28.37550545 28.37550545 0 1 1 0-56.75209697H686.52993939a28.37550545 28.37550545 0 1 1 0 56.75209697z" fill="#2C2C2C" p-id="27371"></path>
    <path d="M617.02314666 885.95238788H407.08220121a28.36464485 28.36464485 0 0 1-27.7868606-34.1142497l27.84224969-134.75622788a28.37550545 28.37550545 0 0 1 27.78686061-22.63241696h154.15109818c13.45629091 0 25.06736485 9.45307152 27.78686061 22.63241696l27.31985455 132.26480485A28.37007515 28.37007515 0 0 1 617.02206061 885.95238788z m-175.10337939-56.74666667h140.16046546l-16.10845091-78.00956121h-107.93270303l-16.11931152 78.00956121z" fill="#2C2C2C" p-id="27372"></path>
</svg>