<svg t="1691331601011" class="icon" viewBox="0 0 1024 1024" version="1.1"
    xmlns="http://www.w3.org/2000/svg" p-id="37407" width="200" height="200">
    <path d="M512 0C228.864 0 0 228.864 0 512s228.864 512 512 512 512-228.864 512-512S795.136 0 512 0z m0 975.872C256 975.872 48.128 768 48.128 512S256 48.128 512 48.128 975.872 256 975.872 512 768 975.872 512 975.872z" fill="#333333" p-id="37408"></path>
    <path d="M327.168 387.072v131.072H706.56V387.072H327.168z m311.296 83.456H397.312v-37.888h241.152v37.888z" fill="#333333" p-id="37409"></path>
    <path d="M314.368 358.912h404.992v60.416h70.144V308.736h-110.08c22.528-16.896 42.496-33.792 59.392-50.176l4.096-4.096-64-15.36-1.024 1.024C648.192 266.24 619.52 288.768 592.384 307.2l-2.56 1.536h-35.328v-76.8H481.792v76.288h-38.4l-2.048-1.024c-17.92-15.872-45.568-38.4-83.456-67.072l-1.024-1.024-64 15.36 4.096 4.096c3.072 3.072 8.704 8.192 16.896 13.824 17.92 15.36 32.256 27.136 41.984 36.352H246.272v110.592h68.096V358.912zM747.008 687.616v-142.848h-455.68v147.456h70.656v-97.28h316.928v92.672z" fill="#333333" p-id="37410"></path>
    <path d="M668.672 697.856c-52.736-17.408-94.208-30.72-122.88-38.4 5.632-13.312 9.216-28.16 10.752-44.032l0.512-3.584H485.888l0.512 3.584c1.536 19.456-3.584 36.864-16.384 51.2-32.256 36.864-111.104 57.856-235.008 63.488H230.4l2.048 4.096c9.216 18.432 17.408 36.864 23.552 55.296l1.024 2.56h2.56c136.192-13.824 223.744-41.472 259.584-82.944 55.296 13.824 136.192 40.96 240.128 80.384l2.56 1.024 31.744-56.832-124.928-35.84z" fill="#333333" p-id="37411"></path>
</svg>