  <svg
    t="1690876502632"
    class="icon"
    viewBox="0 0 1024 1024"
    version="1.1"
    xmlns="http://www.w3.org/2000/svg"
    p-id="12973"
    width="200"
    height="200"
  >
    <path
      d="M412.398257 816.158416h182.49505v116.594059c0 50.39398-40.858614 91.247525-91.247525 91.247525-50.39905 0-91.247525-40.853545-91.247525-91.247525v-116.594059z"
      fill="#C5AC95"
      p-id="12974"
    ></path>
    <path
      d="M133.089584 390.336634a288.950495 280.058931 90 1 0 560.117862 0 288.950495 280.058931 90 1 0-560.117862 0Z"
      fill="#4D4132"
      p-id="12975"
    ></path>
    <path
      d="M239.54503 423.287129a337.108911 326.970297 90 1 0 653.940594 0 337.108911 326.970297 90 1 0-653.940594 0Z"
      fill="#4D4132"
      p-id="12976"
    ></path>
    <path
      d="M598.178218 610.851485a141.940594 139.405941 0 1 0 283.881188 0 141.940594 139.405941 0 1 0-283.881188 0Z"
      fill="#4D4132"
      p-id="12977"
    ></path>
    <path
      d="M145.139327 622.581861c0 44.599762 36.154297 80.754059 80.754059 80.75406 44.594693 0 80.74899-36.154297 80.74899-80.75406 0-44.594693-36.154297-80.74899-80.754059-80.74899-44.594693 0-80.74899 36.154297-80.74899 80.75406z"
      fill="#C9AB90"
      p-id="12978"
    ></path>
    <path
      d="M471.445545 238.257426h10.138613c145.585426 0 263.60396 118.018535 263.603961 263.60396v182.49505c0 145.585426-118.018535 263.60396-263.603961 263.60396h-10.138613c-145.585426 0-263.60396-118.018535-263.603961-263.60396V501.861386c0-145.585426 118.018535-263.60396 263.603961-263.60396z"
      fill="#EBD3BD"
      p-id="12979"
    ></path>
    <path
      d="M126.732673 195.168317a283.881188 195.168317 0 1 0 567.762377 0 283.881188 195.168317 0 1 0-567.762377 0Z"
      fill="#4D4132"
      p-id="12980"
    ></path>
    <path
      d="M319.366337 760.39604c0 55.995564 45.390574 101.386139 101.386138 101.386138s101.386139-45.390574 101.386139-101.386138H319.366337z"
      fill="#E89E80"
      p-id="12981"
    ></path>
    <path
      d="M683.474376 617.512554c0 44.599762 36.154297 80.754059 80.74899 80.75406s80.754059-36.154297 80.75406-80.75406c0-44.594693-36.159366-80.74899-80.75406-80.74899s-80.754059 36.154297-80.754059 80.75406z"
      fill="#EBD3BD"
      p-id="12982"
    ></path>
    <path
      d="M728.332673 613.609188a35.890693 35.890693 0 1 0 71.781386 0.015208 35.890693 35.890693 0 0 0-71.781386-0.015208z"
      fill="#E89E80"
      p-id="12983"
    ></path>
    <path
      d="M220.81901 531.288713a71.781386 71.781386 0 1 0 143.557703 0c0-39.64198-32.139406-71.776317-71.781386-71.776317s-71.776317 32.139406-71.776317 71.781386z"
      fill="#FFFFFF"
      p-id="12984"
    ></path>
    <path
      d="M256.709703 535.77505a31.404356 31.404356 0 1 0 62.808713 0 31.404356 31.404356 0 0 0-62.808713 0z"
      fill="#514141"
      p-id="12985"
    ></path>
    <path
      d="M472.043723 531.288713c0 39.64198 32.139406 71.781386 71.781386 71.781386s71.771248-32.139406 71.771247-71.781386-32.134337-71.776317-71.776316-71.776317-71.781386 32.139406-71.781387 71.781386z"
      fill="#FFFFFF"
      p-id="12986"
    ></path>
    <path
      d="M507.934416 535.77505a31.404356 31.404356 0 1 0 62.803643 0 31.404356 31.404356 0 0 0-62.808712 0z"
      fill="#514141"
      p-id="12987"
    ></path>
    <path
      d="M233.364455 374.116175m27.566114 12.85429l91.887047 42.847634q27.566114 12.85429 14.711824 40.420404l0 0q-12.85429 27.566114-40.420405 14.711824l-91.887047-42.847634q-27.566114-12.85429-14.711824-40.420404l0 0q12.85429-27.566114 40.420405-14.711824Z"
      fill="#4D4132"
      p-id="12988"
    ></path>
    <path
      d="M436.180735 431.874039m29.237584-8.383742l116.950334-33.534969q29.237583-8.383742 37.621325 20.853842l0 0q8.383742 29.237583-20.853841 37.621325l-116.950334 33.534969q-29.237583 8.383742-37.621326-20.853842l0 0q-8.383742-29.237583 20.853842-37.621325Z"
      fill="#4D4132"
      p-id="12989"
    ></path>
  </svg>