  <svg
    t="1690876086256"
    class="icon"
    viewBox="0 0 1122 1024"
    version="1.1"
    xmlns="http://www.w3.org/2000/svg"
    p-id="5724"
    width="200"
    height="200"
  >
    <path
      d="M561.380711 0c215.305096 0 389.847716 174.542619 389.847715 389.847716v171.532995l0.015594 3.882883c1.091574 127.875249 55.898964 230.904203 123.347818 230.904203 17.090924 0 33.370964-6.617015 48.169583-18.572345-43.917645 80.859614-103.564345 130.952447-169.360243 132.028426L951.228426 909.64467v-36.385787H171.532995v36.385787c-66.653563 0-127.131939-50.300751-171.532995-132.049218 14.798619 11.95533 31.07866 18.572345 48.169584 18.572345 67.448853 0 122.256244-103.023756 123.347817-230.904203L171.532995 561.380711V389.847716c0-215.305096 174.542619-389.847716 389.847716-389.847716z"
      fill="#4D4132"
      p-id="5725"
    ></path>
    <path
      d="M553.438213 956.426396c244.013482 0 444.571939-31.624447 444.571939-74.684426 0-43.065178-197.813929-91.650599-441.827411-91.650599s-441.827411 48.585421-441.827411 91.650599C114.35533 924.801949 309.424731 956.426396 553.438213 956.426396z"
      fill="#4D4132"
      p-id="5726"
    ></path>
    <path
      d="M467.817259 810.883249h187.126903v119.553299c0 51.673015-41.890437 93.563452-93.563451 93.563452s-93.563452-41.890437-93.563452-93.563452v-119.553299z"
      fill="#E6C9AE"
      p-id="5727"
    ></path>
    <path
      d="M202.720812 602.964467c0 43.05998 34.909563 77.969543 77.969543 77.969543 43.05998 0 77.969543-34.909563 77.969543-77.969543 0-43.05998-34.909563-77.969543-77.969543-77.969543-43.05998 0-77.969543 34.909563-77.969543 77.969543z"
      fill="#F2DCC9"
      p-id="5728"
    ></path>
    <path
      d="M244.304569 602.969665a36.385787 36.385787 0 1 0 72.771573 0.010396 36.385787 36.385787 0 0 0-72.771573-0.010396z"
      fill="#E89E80"
      p-id="5729"
    ></path>
    <path
      d="M764.101523 602.964467c0 43.05998 34.909563 77.969543 77.969543 77.969543 43.05998 0 77.969543-34.909563 77.969543-77.969543 0-43.05998-34.909563-77.969543-77.969543-77.969543-43.05998 0-77.969543 34.909563-77.969543 77.969543z"
      fill="#F2DCC9"
      p-id="5730"
    ></path>
    <path
      d="M805.685279 602.969665a36.385787 36.385787 0 1 0 72.771574 0.010396 36.385787 36.385787 0 0 0-72.771574-0.010396z"
      fill="#E89E80"
      p-id="5731"
    ></path>
    <path
      d="M556.182741 218.314721h10.395939c149.280487 0 270.294416 121.013929 270.294416 270.294416v181.928934c0 152.149766-123.342619 275.492386-275.492385 275.492386h-5.19797c-149.280487 0-270.294416-121.013929-270.294416-270.294416V488.609137c0-149.280487 121.013929-270.294416 270.294416-270.294416z"
      fill="#F2DCC9"
      p-id="5732"
    ></path>
    <path
      d="M696.527919 514.598985c25.833909 0 46.781726 19.544365 46.781726 43.662944v37.425381c0 24.118579-20.947817 43.662944-46.781726 43.662944s-46.781726-19.544365-46.781726-43.662944V558.261929C649.746193 534.14335 670.69401 514.598985 696.527919 514.598985zM426.233503 514.598985c25.833909 0 46.781726 19.544365 46.781725 43.662944v37.425381c0 24.118579-20.947817 43.662944-46.781725 43.662944s-46.781726-19.544365-46.781726-43.662944V558.261929C379.451777 534.14335 400.399594 514.598985 426.233503 514.598985z"
      fill="#514141"
      p-id="5733"
    ></path>
    <path
      d="M426.233503 550.984772m-20.791879 0a20.791878 20.791878 0 1 0 41.583757 0 20.791878 20.791878 0 1 0-41.583757 0Z"
      fill="#FFFFFF"
      p-id="5734"
    ></path>
    <path
      d="M691.329949 550.984772m-20.791878 0a20.791878 20.791878 0 1 0 41.583756 0 20.791878 20.791878 0 1 0-41.583756 0Z"
      fill="#FFFFFF"
      p-id="5735"
    ></path>
    <path
      d="M467.817259 800.48731m10.395939 0l166.335025 0q10.395939 0 10.395939 10.395939l0 20.791878q0 10.395939-10.395939 10.395939l-166.335025 0q-10.395939 0-10.395939-10.395939l0-20.791878q0-10.395939 10.395939-10.395939Z"
      fill="#E89E80"
      p-id="5736"
    ></path>
    <path
      d="M474.605807 516.45466l0.670538 0.462619c0.571777 0.337868 1.117563 0.706924 1.637361 1.112366 6.227168 4.823716 6.372711 12.537503 0.322274 17.226071-5.889299 4.563817-15.479553 4.574213-21.727513 0.119553l-0.504203-0.369056-0.05198 0.041584c-24.731939-17.413198-62.323655-17.475574-85.844467 0.119553l-0.774497 0.587371c-6.050437 4.688569-15.99935 4.574213-22.231716-0.249503-6.060832-4.698964-6.357117-12.137259-0.784893-16.851817l0.467817-0.374254c34.504122-26.738355 90.174376-27.455675 127.69332-2.588589l1.127959 0.764102zM770.890071 516.45466l0.670538 0.462619c0.571777 0.337868 1.117563 0.706924 1.637361 1.112366 6.227168 4.823716 6.372711 12.537503 0.322274 17.226071-5.889299 4.563817-15.479553 4.574213-21.727513 0.119553l-0.504203-0.369056-0.05198 0.041584c-24.731939-17.413198-62.323655-17.475574-85.844467 0.119553l-0.774497 0.587371c-6.050437 4.688569-15.99935 4.574213-22.231716-0.249503-6.060832-4.698964-6.357117-12.137259-0.784893-16.851817l0.467817-0.374254c34.504122-26.738355 90.174376-27.455675 127.69332-2.588589l1.127959 0.764102zM786.608731 439.914558l0.727716-0.69133a22.819086 22.819086 0 0 0 1.793299-1.668548c6.653401-6.928893 4.70936-14.398376-4.335106-16.680284-8.810558-2.219533-21.103756 1.289096-27.887107 7.869726l-0.540589 0.540589-0.077969-0.020792c-26.899492 25.833909-75.05868 39.707289-110.061807 31.43732l-1.148752-0.280691c-9.044467-2.287107-21.774294 1.481421-28.427695 8.410315-6.47667 6.741766-4.808122 13.998132 3.638578 16.482761l0.696528 0.192325c51.600244 13.020914 123.150294-6.75736 164.380589-44.442639l1.237117-1.148752zM337.89401 439.914558l-0.727716-0.69133a22.819086 22.819086 0 0 1-1.793299-1.668548c-6.653401-6.928893-4.70936-14.398376 4.335107-16.680284 8.810558-2.219533 21.103756 1.289096 27.887106 7.869726l0.535391 0.540589 0.083167-0.020792c26.899492 25.833909 75.05868 39.707289 110.061808 31.43732l1.143553-0.280691c9.049665-2.287107 21.779492 1.481421 28.432893 8.410315 6.471472 6.741766 4.802924 13.998132-3.638578 16.482761l-0.701726 0.192325c-51.595046 13.020914-123.145096-6.75736-164.375391-44.442639l-1.242315-1.148752z"
      fill="#4D4132"
      p-id="5737"
    ></path>
    <path
      d="M269.785015 489.092548c-23.406457-59.05933-25.563614-126.726497-1.003208-190.713502 51.953706-135.344731 203.791594-202.949523 339.131127-150.995818a261.322721 261.322721 0 0 1 126.960406 103.424c-102.337624 154.993056-279.390863 244.304569-463.762843 238.332102z"
      fill="#4D4132"
      p-id="5738"
    ></path>
  </svg>
