<svg t="1691073043805" class="icon" viewBox="0 0 1024 1024" version="1.1"
    xmlns="http://www.w3.org/2000/svg" p-id="39152" width="200" height="200">
    <path d="M979.00544 159.8464h-69.55008V90.29632c0-22.67136-18.35008-41.00096-41.00096-41.00096-22.60992 0-41.00096 18.35008-41.00096 41.00096v69.55008h-69.55008c-22.60992 0-41.00096 18.35008-41.00096 41.00096 0 22.6304 18.39104 41.04192 41.00096 41.04192h69.55008v69.5296c0 22.65088 18.39104 41.04192 41.00096 41.04192 22.67136 0 41.00096-18.39104 41.00096-41.04192v-69.5296h69.55008c22.67136 0 41.00096-18.39104 41.00096-41.04192 0-22.65088-18.35008-41.00096-41.00096-41.00096zM326.38976 592.87552l57.07776-208.87552h69.61152L363.3152 680.09984h-71.2704L182.96832 384h68.77184l74.6496 208.87552zM496.70144 384h63.73376v295.28064h-63.73376V384zM667.83232 565.18656v114.91328l-62.89408-0.83968V384h145.96096c7.82336 0 17.57184 0.86016 29.30688 2.53952 11.75552 1.67936 22.77376 5.30432 33.13664 10.89536 10.36288 5.59104 18.7392 14.9504 25.14944 28.07808 6.43072 13.14816 9.80992 28.09856 10.09664 44.89216 0.28672 16.77312-1.55648 31.3344-5.48864 43.6224-5.59104 15.09376-13.12768 26.4192-22.60992 33.95584-9.54368 7.55712-18.90304 12.30848-28.09856 14.25408-9.25696 1.96608-23.06048 2.94912-41.51296 2.94912h-83.0464z m0-61.2352h88.8832c7.31136 0 12.73856-1.10592 16.40448-3.35872 3.60448-2.23232 6.36928-5.3248 8.37632-9.23648 1.9456-3.8912 3.05152-9.48224 3.3792-16.77312 0.22528-7.2704-1.00352-13.12768-3.82976-17.6128-3.31776-4.46464-7.63904-7.55712-12.96384-9.23648-5.3248-1.67936-11.3664-2.49856-18.06336-2.49856h-82.18624v58.71616z" p-id="39153"></path>
    <path d="M1020.0064 509.19424c0-21.17632-17.12128-38.31808-38.2976-38.31808s-38.35904 17.14176-38.35904 38.31808c0 0.22528 0.1024 0.47104 0.1024 0.69632-0.24576 238.10048-193.3312 431.0016-431.45216 431.0016-238.30528 0-431.43168-193.16736-431.43168-431.47264C80.56832 271.1552 273.7152 77.96736 512 77.96736v-0.18432c0.49152 0.02048 0.94208 0.14336 1.4336 0.14336 21.05344 0 38.17472-17.1008 38.17472-38.1952 0-21.07392-17.12128-38.17472-38.17472-38.17472-0.49152 0-0.94208 0.14336-1.4336 0.14336V1.41312C231.424 1.41312 3.9936 228.864 3.9936 509.41952c0 280.576 227.40992 508.02688 508.0064 508.02688 280.576 0 508.0064-227.45088 508.0064-508.02688v-0.22528z" p-id="39154"></path>
</svg>