  <svg
    t="1690876383759"
    class="icon"
    viewBox="0 0 1024 1024"
    version="1.1"
    xmlns="http://www.w3.org/2000/svg"
    p-id="11108"
    width="200"
    height="200"
  >
    <path
      d="M416.968092 782.712644h211.862069v135.356322c0 58.503356-47.433563 105.931034-105.931035 105.931034-58.509241 0-105.931034-47.427678-105.931034-105.931034v-135.356322z"
      fill="#C5AC95"
      p-id="11109"
    ></path>
    <path
      d="M106.701977 557.985839c0 51.776736 41.97223 93.748966 93.748966 93.748966 51.770851 0 93.74308-41.97223 93.74308-93.748966 0-51.770851-41.97223-93.74308-93.748966-93.74308-51.770851 0-93.74308 41.97223-93.74308 93.748965z"
      fill="#C9AB90"
      p-id="11110"
    ></path>
    <path
      d="M497.287356 141.241379a94.16092 91.218391 90 1 0 182.436782 0 94.16092 91.218391 90 1 0-182.436782 0Z"
      fill="#4D4132"
      p-id="11111"
    ></path>
    <path
      d="M120.643678 423.724138a94.16092 91.218391 90 1 0 182.436782 0 94.16092 91.218391 90 1 0-182.436782 0Z"
      fill="#4D4132"
      p-id="11112"
    ></path>
    <path
      d="M485.517241 111.816092h11.770115c169.012966 0 306.022989 137.010023 306.022989 306.022988v329.563219c0 104.006621-84.315218 188.321839-188.321839 188.321839H367.816092c-104.006621 0-188.321839-84.315218-188.321839-188.321839V417.83908c0-169.012966 137.010023-306.022989 306.022988-306.022988z"
      fill="#EBD3BD"
      p-id="11113"
    ></path>
    <path
      d="M357.558437 614.093977a45.303172 45.303172 0 0 1-3.766437 63.705747l-72.386207 64.794483a39.90069 39.90069 0 0 1-57.967816-5.06115 45.303172 45.303172 0 0 1 5.390713-61.769563l72.386207-64.794483a39.90069 39.90069 0 0 1 56.34354 3.124966z m97.021057 0a39.90069 39.90069 0 0 1 56.337655-3.11908l72.392092 64.788597a45.303172 45.303172 0 0 1 3.766437 63.705747 39.90069 39.90069 0 0 1-56.337655 3.119081l-72.392092-64.788598a45.303172 45.303172 0 0 1-3.766437-63.705747z"
      fill="#4D4132"
      p-id="11114"
    ></path>
    <path
      d="M348.560184 736.22069c29.107494 11.375816 49.257931 17.066667 60.45131 17.066666 11.193379 0 31.343816-5.690851 60.451311-17.066666A11.770115 11.770115 0 0 1 485.517241 747.184552v21.698207a11.770115 11.770115 0 0 1-7.415172 10.934436C443.733333 793.517609 420.705103 800.367816 409.011494 800.367816c-11.687724 0-34.721839-6.850207-69.090574-20.550621A11.770115 11.770115 0 0 1 332.505747 768.882759v-21.698207a11.770115 11.770115 0 0 1 16.054437-10.963862z"
      fill="#E89E80"
      p-id="11115"
    ></path>
    <path
      d="M404.815448 429.815172a37.181793 37.181793 0 0 1 34.933701 24.481839l38.85315 106.843219a72.915862 72.915862 0 0 1-68.502069 97.82731h-16.460506a72.915862 72.915862 0 0 1-67.478069-100.516781l42.760828-104.530391a38.788414 38.788414 0 0 1 35.892965-24.105196z"
      fill="#E89E80"
      p-id="11116"
    ></path>
    <path
      d="M303.08046 132.413793a132.413793 129.471264 90 1 0 258.942529 0 132.413793 129.471264 90 1 0-258.942529 0Z"
      fill="#4D4132"
      p-id="11117"
    ></path>
    <path
      d="M720.91954 423.724138a94.16092 91.218391 90 1 0 182.436782 0 94.16092 91.218391 90 1 0-182.436782 0Z"
      fill="#4D4132"
      p-id="11118"
    ></path>
    <path
      d="M731.665655 552.100782c0 51.776736 41.97223 93.748966 93.743081 93.748965s93.748966-41.97223 93.748965-93.748965c0-51.770851-41.978115-93.74308-93.748965-93.743081s-93.748966 41.97223-93.748966 93.748966z"
      fill="#EBD3BD"
      p-id="11119"
    ></path>
    <path
      d="M783.742529 547.569287a41.666207 41.666207 0 1 0 83.332414 0.017656 41.666207 41.666207 0 0 0-83.332414-0.017656z"
      fill="#E89E80"
      p-id="11120"
    ></path>
    <path
      d="M200.445057 422.576552a83.332414 83.332414 0 1 0 166.658943 0c0-46.021149-37.311264-83.326529-83.332414-83.326529s-83.326529 37.311264-83.326529 83.332414z"
      fill="#FFFFFF"
      p-id="11121"
    ></path>
    <path
      d="M242.111264 427.784828a36.457931 36.457931 0 1 0 72.915862 0 36.457931 36.457931 0 0 0-72.915862 0z"
      fill="#514141"
      p-id="11122"
    ></path>
    <path
      d="M492.096736 422.576552c0 46.021149 37.311264 83.332414 83.332413 83.332414s83.320644-37.311264 83.320644-83.332414-37.305379-83.326529-83.326529-83.326529-83.332414 37.311264-83.332413 83.332414z"
      fill="#FFFFFF"
      p-id="11123"
    ></path>
    <path
      d="M533.762943 427.784828a36.457931 36.457931 0 1 0 72.909977 0 36.457931 36.457931 0 0 0-72.915863 0z"
      fill="#514141"
      p-id="11124"
    ></path>
    <path
      d="M220.894367 257.767054m32.00204 14.922796l106.673469 49.742655q32.00204 14.922797 17.079243 46.924838l0 0q-14.922797 32.00204-46.924837 17.079243l-106.673468-49.742655q-32.00204-14.922797-17.079244-46.924837l0 0q14.922797-32.00204 46.924837-17.079244Z"
      fill="#4D4132"
      p-id="11125"
    ></path>
    <path
      d="M450.462693 324.819287m33.942482-9.73285l135.769927-38.931401q33.942482-9.73285 43.675332 24.209632l0 0q9.73285 33.942482-24.209632 43.675332l-135.769927 38.931401q-33.942482 9.73285-43.675332-24.209632l0 0q-9.73285-33.942482 24.209632-43.675332Z"
      fill="#4D4132"
      p-id="11126"
    ></path>
  </svg>