  <svg
    t="1690876527195"
    class="icon"
    viewBox="0 0 1024 1024"
    version="1.1"
    xmlns="http://www.w3.org/2000/svg"
    p-id="13313"
    width="200"
    height="200"
  >
    <path
      d="M417.511326 784.091922h210.650995v134.58258c0 58.168932-47.162417 105.325498-105.325498 105.325498-58.174783 0-105.325498-47.156566-105.325497-105.325498v-134.58258z"
      fill="#C5AC95"
      p-id="13314"
    ></path>
    <path
      d="M109.018795 560.64973c0 51.480763 41.732303 93.213065 93.213065 93.213066 51.474911 0 93.207214-41.732303 93.207214-93.213066 0-51.474911-41.732303-93.207214-93.213065-93.207214-51.474911 0-93.207214 41.732303-93.207214 93.213066z"
      fill="#C9AB90"
      p-id="13315"
    ></path>
    <path
      d="M485.668626 117.030437h11.702833c168.046831 0 304.27366 136.226828 304.273659 304.27366v210.650995c0 168.046831-136.226828 304.27366-304.273659 304.27366h-11.702833c-168.046831 0-304.27366-136.226828-304.27366-304.27366V421.304097c0-168.046831 136.226828-304.27366 304.27366-304.27366z"
      fill="#EBD3BD"
      p-id="13316"
    ></path>
    <path
      d="M310.12613 719.72634c0 64.634747 52.393584 117.028331 117.02833 117.028331s117.028331-52.393584 117.028331-117.028331H310.12613z"
      fill="#E89E80"
      p-id="13317"
    ></path>
    <path
      d="M730.409974 554.798314c0 51.480763 41.732303 93.213065 93.207214 93.213065s93.213065-41.732303 93.213065-93.213065c0-51.474911-41.738154-93.207214-93.213065-93.207214s-93.213065 41.732303-93.213066 93.213065z"
      fill="#EBD3BD"
      p-id="13318"
    ></path>
    <path
      d="M782.189158 550.292723a41.428029 41.428029 0 1 0 82.856059 0.017554 41.428029 41.428029 0 0 0-82.856059-0.017554z"
      fill="#E89E80"
      p-id="13319"
    ></path>
    <path
      d="M202.226009 484.528653a82.856058 82.856058 0 1 0 165.706265 0c0-45.758077-37.097981-82.850207-82.856059-82.850207s-82.850207 37.097981-82.850206 82.856058z"
      fill="#FFFFFF"
      p-id="13320"
    ></path>
    <path
      d="M237.802621 483.85574a36.249525 36.249525 0 1 0 72.499051 0 36.249525 36.249525 0 0 0-72.499051 0z"
      fill="#514141"
      p-id="13321"
    ></path>
    <path
      d="M492.210509 484.528653c0 45.758077 37.097981 82.856058 82.856058 82.856058s82.844355-37.097981 82.844356-82.856058-37.092129-82.850207-82.850207-82.850207-82.856058 37.097981-82.856058 82.856058z"
      fill="#FFFFFF"
      p-id="13322"
    ></path>
    <path
      d="M527.787122 483.85574a36.249525 36.249525 0 1 0 72.493199 0 36.249525 36.249525 0 0 0-72.499051 0z"
      fill="#514141"
      p-id="13323"
    ></path>
    <path
      d="M718.16881 86.954156C765.653055 136.059244 810.890357 216.328976 819.199368 279.196595c-56.846512 34.347815-154.249191 49.701932-254.99303 53.417582L532.479958 269.167267l-29.257083 58.514165-29.257082-58.514165-29.257083 58.514165-29.257083-58.514165-29.257082 58.514165-29.257083-58.514165-26.565431 53.148416C214.66612 307.259989 163.840716 279.190744 163.840716 279.190744c15.003032-70.614895 62.744739-144.840113 119.743388-199.814172C340.319439 24.659976 412.701461 2.921963 485.7681 0.253717c84.18433-3.066142 169.28148 21.416185 232.40071 86.700439z"
      fill="#4D4132"
      p-id="13324"
    ></path>
    <path
      d="M222.558423 297.255594m31.819106 14.837493l106.063688 49.45831q31.819106 14.837493 16.981613 46.656599l0 0q-14.837493 31.819106-46.656599 16.981613l-106.063688-49.458309q-31.819106-14.837493-16.981613-46.6566l0 0q14.837493-31.819106 46.656599-16.981613Z"
      fill="#4D4132"
      p-id="13325"
    ></path>
    <path
      d="M456.665877 363.924534m33.748455-9.677214l134.993822-38.708855q33.748455-9.677214 43.42567 24.071242l0 0q9.677214 33.748455-24.071242 43.425669l-134.993822 38.708855q-33.748455 9.677214-43.425669-24.071241l0 0q-9.677214-33.748455 24.071241-43.42567Z"
      fill="#4D4132"
      p-id="13326"
    ></path>
  </svg>