<svg t="1691207373558" class="icon" viewBox="0 0 1024 1024" version="1.1"
    xmlns="http://www.w3.org/2000/svg" p-id="10041" width="200" height="200">
    <path d="M0 486.399514a486.399514 486.399514 0 1 0 972.799027 0 486.399514 486.399514 0 0 0-972.799027 0z" fill="#FDDF6D" p-id="10042"></path>
    <path d="M596.069804 952.063048c-271.103729 0-490.905109-218.214182-490.905109-487.423513A484.607515 484.607515 0 0 1 267.775732 102.399898C108.799891 183.091017 0 347.238053 0 536.575463 0 805.835994 219.75018 1023.998976 490.853909 1023.998976A491.007509 491.007509 0 0 0 819.199181 898.866301a491.621908 491.621908 0 0 1-223.129377 53.196747z" fill="#FCC56B" p-id="10043"></path>
    <path d="M372.735627 511.999488C336.537263 511.999488 307.199693 557.823442 307.199693 614.399386h131.071869c0-56.575943-29.337571-102.399898-65.535935-102.399898z m534.527466 0c-36.198364 0-65.535934 45.823954-65.535935 102.399898H972.799027c0-56.575943-29.337571-102.399898-65.535934-102.399898z" fill="#F9A880" p-id="10044"></path>
    <path d="M696.319304 819.199181H481.279519c-39.57756 0-71.679928-34.406366-71.679929-76.799923S441.701958 665.599334 481.279519 665.599334h215.039785c39.57756 0 71.679928 34.406366 71.679928 76.799924s-32.102368 76.799923-71.679928 76.799923z" fill="#FFFFFF" p-id="10045"></path>
    <path d="M409.59959 742.399258c0 8.857591 0.972799 17.459183 2.713598 25.599974h352.972447a121.855878 121.855878 0 0 0 0-51.199949H412.313188c-1.791998 8.345592-2.713597 16.895983-2.713598 25.599975z" fill="#E6E6E6" p-id="10046"></path>
    <path d="M711.320889 40.24316a20.01918 20.01918 0 0 0-15.615985 36.863963A471.346729 471.346729 0 0 1 983.960616 511.999488c0 260.24934-211.711788 471.961128-471.961128 471.961128S40.03836 772.248828 40.03836 511.999488 251.750148 40.03836 511.999488 40.03836A19.96798 19.96798 0 1 0 511.999488 0C229.68297 0 0 229.68297 0 511.999488s229.68297 511.999488 511.999488 511.999488 511.999488-229.68297 511.999488-511.999488A511.282689 511.282689 0 0 0 711.320889 40.24316z" fill="#000000" p-id="10047"></path>
    <path d="M360.03804 497.305103c3.071997 7.423993 9.98399 12.185588 17.663982 12.185588a18.431982 18.431982 0 0 0 7.731193-1.689599l119.55188-54.886345a20.37758 20.37758 0 0 0 11.571188-18.585581c0-8.038392-4.454396-15.359985-11.468788-18.636782L385.535614 360.14044a18.943981 18.943981 0 0 0-25.497574 10.393589c-4.300796 10.23999 0.1024 22.271978 9.88159 26.777574l79.308721 36.863963-79.257521 36.351963a20.735979 20.735979 0 0 0-9.93279 26.777574z m508.722691 0a19.302381 19.302381 0 0 1-17.663982 12.185588 18.431982 18.431982 0 0 1-7.731192-1.689599l-119.551881-54.886345a20.37758 20.37758 0 0 1-11.571188-18.585581c0-8.038392 4.454396-15.359985 11.468788-18.636782l119.551881-55.551944a18.943981 18.943981 0 0 1 25.497574 10.393589 20.787179 20.787179 0 0 1-9.88159 26.777574l-79.308721 36.863963 79.257521 36.351963c9.72799 4.505595 14.233586 16.486384 9.93279 26.777574z m-450.559549 278.220521c0 52.326348 40.44796 94.873505 90.11191 94.873506h212.172588c49.66395 0 90.11191-42.547157 90.111909-94.873506 0-52.275148-40.44796-94.873505-90.111909-94.873505H508.313092c-49.66395 0-90.11191 42.598357-90.11191 94.873505z m353.791646 0c0 29.90077-23.091177 54.220746-51.507148 54.220746H508.313092c-28.415972 0-51.507148-24.319976-51.507149-54.220746s23.091177-54.169546 51.507149-54.169545h212.172588c28.415972 0 51.507148 24.319976 51.507148 54.169545zM614.399386 25.599974a25.599974 25.599974 0 1 0 51.199948 0 25.599974 25.599974 0 0 0-51.199948 0z" fill="#000000" p-id="10048"></path>
</svg>