  <svg
    t="1690876120943"
    class="icon"
    viewBox="0 0 1024 1024"
    version="1.1"
    xmlns="http://www.w3.org/2000/svg"
    p-id="6246"
    width="200"
    height="200"
  >
    <path
      d="M512 0c200.76544 0 363.52 162.75456 363.52 363.52v399.36c0 127.24736-103.15264 230.4-230.4 230.4H378.88c-127.24736 0-230.4-103.15264-230.4-230.4V363.52C148.48 162.75456 311.23456 0 512 0z"
      fill="#E88080"
      p-id="6247"
    ></path>
    <path
      d="M419.84 814.08h184.32v117.76c0 50.89792-41.26208 92.16-92.16 92.16s-92.16-41.26208-92.16-92.16v-117.76z"
      fill="#E6C9AE"
      p-id="6248"
    ></path>
    <path
      d="M158.72 609.28c0 42.41408 34.38592 76.8 76.8 76.8 42.41408 0 76.8-34.38592 76.8-76.8 0-42.41408-34.38592-76.8-76.8-76.8-42.41408 0-76.8 34.38592-76.8 76.8z"
      fill="#F2DCC9"
      p-id="6249"
    ></path>
    <path
      d="M199.68 609.28512a35.84 35.84 0 1 0 71.68 0.01024 35.84 35.84 0 0 0-71.68-0.01024z"
      fill="#E89E80"
      p-id="6250"
    ></path>
    <path
      d="M711.68 609.28c0 42.41408 34.38592 76.8 76.8 76.8 42.41408 0 76.8-34.38592 76.8-76.8 0-42.41408-34.38592-76.8-76.8-76.8-42.41408 0-76.8 34.38592-76.8 76.8z"
      fill="#F2DCC9"
      p-id="6251"
    ></path>
    <path
      d="M752.64 609.28512a35.84 35.84 0 1 0 71.68 0.01024 35.84 35.84 0 0 0-71.68-0.01024z"
      fill="#E89E80"
      p-id="6252"
    ></path>
    <path
      d="M506.88 230.4h10.24c147.04128 0 266.24 119.19872 266.24 266.24v179.2c0 149.86752-121.49248 271.36-271.36 271.36h-5.12c-147.04128 0-266.24-119.19872-266.24-266.24V496.64c0-147.04128 119.19872-266.24 266.24-266.24z"
      fill="#F2DCC9"
      p-id="6253"
    ></path>
    <path
      d="M230.4 534.03648c0-147.04128 119.19872-266.24 266.24-266.24h15.36c155.52512 0 281.6 126.07488 281.6 281.6V404.48c0-155.52512-126.07488-281.6-281.6-281.6h-15.36c-147.04128 0-266.24 119.19872-266.24 266.24z"
      fill="#4D4132"
      p-id="6254"
    ></path>
    <path
      d="M305.92 660.48a11.52 11.52 0 0 1 11.52 11.52v38.4a11.52 11.52 0 0 1-11.52 11.52h-7.68a11.52 11.52 0 0 1-11.52-11.52v-38.4a11.52 11.52 0 0 1 11.52-11.52h7.68z m46.08 0a11.52 11.52 0 0 1 11.52 11.52v38.4a11.52 11.52 0 0 1-11.52 11.52h-7.68a11.52 11.52 0 0 1-11.52-11.52v-38.4a11.52 11.52 0 0 1 11.52-11.52h7.68zM684.8 660.48a11.52 11.52 0 0 1 11.52 11.52v38.4a11.52 11.52 0 0 1-11.52 11.52h-7.68a11.52 11.52 0 0 1-11.52-11.52v-38.4a11.52 11.52 0 0 1 11.52-11.52h7.68z m46.08 0a11.52 11.52 0 0 1 11.52 11.52v38.4a11.52 11.52 0 0 1-11.52 11.52h-7.68a11.52 11.52 0 0 1-11.52-11.52v-38.4a11.52 11.52 0 0 1 11.52-11.52h7.68z"
      fill="#F5B196"
      p-id="6255"
    ></path>
    <path
      d="M419.84 768c0 50.89792 41.26208 92.16 92.16 92.16s92.16-41.26208 92.16-92.16H419.84z"
      fill="#E89E80"
      p-id="6256"
    ></path>
    <path
      d="M491.52 680.96c5.08928 0 9.216 1.72032 9.216 3.84v12.8c0 2.11968-4.12672 3.84-9.216 3.84h-6.144c-5.08928 0-9.216-1.72032-9.216-3.84v-12.8c0-2.11968 4.12672-3.84 9.216-3.84H491.52z m47.104 0c5.08928 0 9.216 1.72032 9.216 3.84v12.8c0 2.11968-4.12672 3.84-9.216 3.84H532.48c-5.08928 0-9.216-1.72032-9.216-3.84v-12.8c0-2.11968 4.12672-3.84 9.216-3.84h6.144z"
      fill="#F5B196"
      p-id="6257"
    ></path>
    <path
      d="M655.36 522.24c25.4464 0 46.08 19.2512 46.08 43.008v36.864c0 23.7568-20.6336 43.008-46.08 43.008s-46.08-19.2512-46.08-43.008V565.248C609.28 541.4912 629.9136 522.24 655.36 522.24zM378.88 522.24c25.4464 0 46.08 19.2512 46.08 43.008v36.864c0 23.7568-20.6336 43.008-46.08 43.008s-46.08-19.2512-46.08-43.008V565.248C332.8 541.4912 353.4336 522.24 378.88 522.24z"
      fill="#514141"
      p-id="6258"
    ></path>
    <path
      d="M384 552.96m-20.48 0a20.48 20.48 0 1 0 40.96 0 20.48 20.48 0 1 0-40.96 0Z"
      fill="#FFFFFF"
      p-id="6259"
    ></path>
    <path
      d="M640 552.96m-20.48 0a20.48 20.48 0 1 0 40.96 0 20.48 20.48 0 1 0-40.96 0Z"
      fill="#FFFFFF"
      p-id="6260"
    ></path>
    <path
      d="M431.64672 518.94784l0.66048 0.45568c0.5632 0.3328 1.1008 0.69632 1.6128 1.09568 6.13376 4.75136 6.27712 12.34944 0.31744 16.96768-5.80096 4.49536-15.24736 4.5056-21.4016 0.11776l-0.49664-0.36352-0.0512 0.04096c-24.36096-17.152-61.3888-17.21344-84.5568 0.11776l-0.76288 0.57856c-5.95968 4.61824-15.75936 4.5056-21.89824-0.24576-5.96992-4.62848-6.26176-11.9552-0.77312-16.59904l0.4608-0.36864c33.98656-26.33728 88.82176-27.04384 125.77792-2.54976l1.11104 0.75264zM723.48672 518.94784l0.66048 0.45568c0.5632 0.3328 1.1008 0.69632 1.6128 1.09568 6.13376 4.75136 6.27712 12.34944 0.31744 16.96768-5.80096 4.49536-15.24736 4.5056-21.4016 0.11776l-0.49664-0.36352-0.0512 0.04096c-24.36096-17.152-61.3888-17.21344-84.5568 0.11776l-0.76288 0.57856c-5.95968 4.61824-15.75936 4.5056-21.89824-0.24576-5.96992-4.62848-6.26176-11.9552-0.77312-16.59904l0.4608-0.36864c33.98656-26.33728 88.82176-27.04384 125.77792-2.54976l1.11104 0.75264zM431.64672 426.30656l0.66048 0.5632c0.5632 0.41984 1.1008 0.87552 1.6128 1.37728 6.13376 5.9392 6.27712 15.4368 0.31744 21.20704-5.80096 5.62176-15.24736 5.63712-21.4016 0.1536l-0.49664-0.4608-0.0512 0.0512c-24.36096-21.44256-61.3888-21.51936-84.5568 0.14848l-0.76288 0.72192c-5.95968 5.77024-15.75936 5.632-21.89824-0.3072-5.96992-5.7856-6.26176-14.94016-0.77312-20.74624l0.4608-0.4608c33.98656-32.9216 88.82176-33.80224 125.77792-3.18464l1.11104 0.93696zM718.36672 426.30656l0.66048 0.5632c0.5632 0.41984 1.1008 0.87552 1.6128 1.37728 6.13376 5.9392 6.27712 15.4368 0.31744 21.20704-5.80096 5.62176-15.24736 5.63712-21.4016 0.1536l-0.49664-0.4608-0.0512 0.0512c-24.36096-21.44256-61.3888-21.51936-84.5568 0.14848l-0.76288 0.72192c-5.95968 5.77024-15.75936 5.632-21.89824-0.3072-5.96992-5.7856-6.26176-14.94016-0.77312-20.74624l0.4608-0.4608c33.98656-32.9216 88.82176-33.80224 125.77792-3.18464l1.11104 0.93696z"
      fill="#4D4132"
      p-id="6261"
    ></path>
    <path
      d="M247.3472 589.5168C306.6368 640.86528 394.24512 669.63968 510.16704 675.84c116.09088 6.21568 206.21824-30.00832 270.37184-108.67712a10.24 10.24 0 0 1 18.176 6.47168V988.16a10.24 10.24 0 0 1-10.24 10.24H240.64a10.24 10.24 0 0 1-10.24-10.24v-390.89664a10.24 10.24 0 0 1 16.9472-7.74144z"
      fill="#4D4132"
      fill-opacity=".4"
      p-id="6262"
    ></path>
  </svg>
