  <svg
    t="1690876554295"
    class="icon"
    viewBox="0 0 1024 1024"
    version="1.1"
    xmlns="http://www.w3.org/2000/svg"
    p-id="13649"
    width="200"
    height="200"
  >
    <path
      d="M386.890225 775.573964h218.130177v139.360947c0 60.234225-48.836923 109.065089-109.065088 109.065089-60.240284 0-109.065089-48.830864-109.065089-109.065089v-139.360947z"
      fill="#C5AC95"
      p-id="13650"
    ></path>
    <path
      d="M72.710059 233.278107v157.538461c0 87.009704 70.528757 157.538462 157.538462 157.538462h139.360946v-157.538462c0-87.009704-70.528757-157.538462-157.538461-157.538461h-139.360947z"
      fill="#4D4132"
      p-id="13651"
    ></path>
    <path
      d="M67.444639 544.198438c0 53.308592 43.214012 96.522604 96.522604 96.522603 53.302533 0 96.516544-43.214012 96.516544-96.522603 0-53.302533-43.214012-96.516544-96.522604-96.516545-53.302533 0-96.516544 43.214012-96.516544 96.522604z"
      fill="#C9AB90"
      p-id="13652"
    ></path>
    <path
      d="M457.467456 84.828402h12.118343c174.013349 0 315.076923 141.063574 315.076923 315.076923v339.31361c0 107.08374-86.809751 193.893491-193.893491 193.893491H336.284024c-107.08374 0-193.893491-86.809751-193.893491-193.893491V399.905325c0-174.013349 141.063574-315.076923 315.076923-315.076923z"
      fill="#EBD3BD"
      p-id="13653"
    ></path>
    <path
      d="M710.898367 538.139266c0 53.308592 43.214012 96.522604 96.516544 96.522604s96.522604-43.214012 96.522604-96.522604c0-53.302533-43.220071-96.516544-96.522604-96.516544s-96.522604 43.214012-96.522603 96.522603z"
      fill="#EBD3BD"
      p-id="13654"
    ></path>
    <path
      d="M764.515976 533.473704a42.898935 42.898935 0 1 0 85.79787 0.018178 42.898935 42.898935 0 0 0-85.79787-0.018178z"
      fill="#E89E80"
      p-id="13655"
    ></path>
    <path
      d="M163.961183 441.137988a85.79787 85.79787 0 1 0 171.589681 0c0-47.382722-38.415148-85.791811-85.79787-85.79181s-85.791811 38.415148-85.791811 85.797869z"
      fill="#FFFFFF"
      p-id="13656"
    ></path>
    <path
      d="M206.860118 446.500355a37.536568 37.536568 0 1 0 75.073136 0 37.536568 37.536568 0 0 0-75.073136 0z"
      fill="#514141"
      p-id="13657"
    ></path>
    <path
      d="M463.526627 443.288994c0 47.382722 38.415148 85.791811 85.79787 85.791811s85.791811-38.415148 85.791811-85.79787S596.70116 357.491124 549.318438 357.491124 463.526627 395.906272 463.526627 443.288994z"
      fill="#FFFFFF"
      p-id="13658"
    ></path>
    <path
      d="M505.940828 443.501065a37.536568 37.536568 0 1 0 75.073136 0 37.536568 37.536568 0 0 0-75.073136 0z"
      fill="#514141"
      p-id="13659"
    ></path>
    <path
      d="M185.015502 253.274955m32.948846 15.364299l109.829488 51.214332q32.948846 15.364299 17.584547 48.313145l0 0q-15.364299 32.948846-48.313145 17.584547l-109.829489-51.214331q-32.948846-15.364299-17.584547-48.313146l0 0q15.364299-32.948846 48.313146-17.584547Z"
      fill="#4D4132"
      p-id="13660"
    ></path>
    <path
      d="M421.37579 322.310982m34.946697-10.020805l139.78679-40.083217q34.946697-10.020804 44.967502 24.925894l0 0q10.020804 34.946697-24.925894 44.967501l-139.786789 40.083217q-34.946697 10.020804-44.967502-24.925893l0 0q-10.020804-34.946697 24.925893-44.967502Z"
      fill="#4D4132"
      p-id="13661"
    ></path>
    <path
      d="M275.692308 733.159763c0 66.929609 54.253822 121.183432 121.183432 121.183432s121.183432-54.253822 121.183432-121.183432H275.692308z"
      fill="#E89E80"
      p-id="13662"
    ></path>
    <path
      d="M384.757396 0H227.218935C140.209231 0 69.680473 70.528757 69.680473 157.538462v139.360946h157.538462c87.009704 0 157.538462-70.528757 157.538461-157.538461V0z"
      fill="#4D4132"
      p-id="13663"
    ></path>
    <path
      d="M348.402367 0h345.372781c87.009704 0 157.538462 70.528757 157.538461 157.538462v139.360946H505.940828c-87.009704 0-157.538462-70.528757-157.538461-157.538461V0z"
      fill="#4D4132"
      p-id="13664"
    ></path>
    <path
      d="M947.721089 99.527953l11.415479 217.827219c4.556497 86.888521-62.185278 161.016426-149.073799 165.572923l-60.506887 3.168946-11.421539-217.827219c-4.550438-86.888521 62.191337-161.016426 149.079858-165.566863l60.506888-3.175006z"
      fill="#4D4132"
      p-id="13665"
    ></path>
  </svg>
